<?xml version="1.0" encoding="UTF-8"?>
<svg xmlns="http://www.w3.org/2000/svg" height="596.70796460177" width="452.32525148644913" viewBox="-223.64601769911505 0.0 452.32525148644913 596.70796460177">
	<g id="p1" style="display:inline">
		<g id="CrdtId(0, 1)" transform="translate(0.0, 0.0)">
		<g id="CrdtId(0, 11)" transform="translate(0.0, 0.0)">
			<polyline style="fill:none; stroke:rgb(0, 0, 0); stroke-width:1.720; opacity:1" stroke-linecap="round" points="-164.055,81.221 -164.146,81.181 -163.328,77.853 -163.351,77.249 -162.949,74.813 -162.729,72.922 -162.710,71.584 -162.294,68.629 -161.791,66.525 -160.642,63.421 -159.780,60.415 -159.399,59.557 -159.027,59.377 -158.808,60.337 -158.835,61.085 -159.181,62.661 -159.447,64.678 -160.149,67.673 -160.878,71.839 -161.625,74.222 -161.861,75.586 -162.665,77.978 -163.652,80.409 -165.149,82.905 -165.739,83.666 -166.402,84.082 -166.645,84.015 -167.328,83.505 -167.910,82.867 -168.997,80.524 -169.555,79.031 -170.144,77.035 -170.527,76.246 -170.657,75.573 -170.647,74.872 -170.331,74.994 -169.352,75.974 -169.086,76.400 -166.517,78.902 -166.333,79.304 -165.992,79.473 -165.442,79.434 -165.458,79.327 " />
			<polyline style="fill:none; stroke:rgb(0, 0, 0); stroke-width:1.720; opacity:1" stroke-linecap="round" points="-157.415,75.490 -157.111,74.906 -156.332,74.340 -155.794,73.574 -154.141,72.044 -153.034,71.384 -152.352,71.096 -151.876,72.661 -151.939,74.160 -152.524,77.019 -152.705,77.685 -153.029,78.343 -153.141,78.950 -153.128,78.245 -150.629,74.859 -149.527,73.028 -149.091,72.484 -148.931,72.091 -148.633,72.979 -148.705,73.745 -148.465,74.863 -148.510,75.774 -148.287,76.837 -147.812,78.587 -147.108,79.364 -146.460,79.713 -145.434,80.034 -143.890,80.023 -142.046,79.660 -140.390,78.814 -138.429,76.437 -137.566,74.338 -136.966,70.220 -137.010,66.717 -137.443,64.966 -138.051,65.571 -138.383,66.670 -138.351,69.902 -138.233,70.555 -138.265,73.120 -138.148,74.884 -137.524,77.993 -137.152,79.158 -136.637,80.022 -135.853,80.112 -134.062,79.495 -132.907,78.320 -132.646,77.459 -131.923,76.434 -131.288,73.061 -131.336,70.894 -131.161,70.213 -131.199,69.817 -130.179,73.002 -129.358,73.779 -128.977,73.924 -128.190,73.874 -127.469,73.496 -126.675,72.395 -126.398,71.646 -126.005,71.010 -126.315,71.636 -126.516,72.756 -126.489,75.331 -125.472,78.419 -124.182,79.756 -123.718,79.927 -122.407,79.837 -120.633,79.044 -119.112,77.717 -118.135,75.890 -117.532,73.626 -117.594,73.082 -117.792,73.516 -118.078,73.842 -118.446,75.223 -118.403,76.886 -118.040,78.994 -117.245,80.558 -115.776,81.404 -115.122,81.569 -114.140,81.493 -112.668,81.140 -111.081,80.125 -110.376,79.174 -110.172,77.954 -110.716,76.537 -111.509,75.465 -112.760,74.327 -114.007,72.774 -114.640,72.449 -114.885,72.193 -115.729,71.835 -115.821,72.234 -115.757,72.754 -115.182,73.747 -114.115,74.326 -112.249,74.289 -110.499,73.962 -109.976,73.988 -107.549,73.609 -106.780,73.599 -102.039,72.540 -100.970,72.542 -100.603,72.786 -100.054,72.763 -99.871,72.558 -100.628,72.311 -101.319,72.371 -102.040,72.685 -103.210,73.528 -104.187,74.510 -104.363,75.242 -104.311,76.185 -103.906,78.010 -103.589,78.603 -101.889,80.381 -100.289,81.216 -99.440,81.125 -98.469,80.784 -98.052,80.481 -97.361,79.740 -96.905,78.979 -96.531,78.177 -96.067,74.753 -96.127,72.580 -96.711,68.311 -97.218,66.053 -97.264,64.564 -97.690,65.801 -98.001,67.438 -97.957,72.621 -97.361,76.018 -96.295,78.075 -94.594,79.131 -94.174,79.227 -92.733,79.165 -90.754,78.722 -88.677,77.645 -88.038,76.789 -87.678,76.029 -87.488,75.554 -87.306,74.461 -87.469,73.160 -87.943,71.827 -88.494,73.224 -88.495,75.658 -87.984,78.046 -87.337,79.557 -86.874,80.371 -85.585,81.223 -84.761,81.451 -83.950,81.406 -83.280,81.138 -82.036,80.295 -81.757,80.008 -81.388,79.442 -80.659,77.534 -80.237,75.124 -80.278,73.177 -80.446,73.609 -80.417,76.000 -79.774,78.361 -78.940,80.200 -77.915,81.087 -76.683,81.860 -76.212,81.958 -75.255,81.897 -74.556,81.635 -73.589,80.961 -72.998,79.787 -72.670,77.813 -72.708,74.293 -72.392,73.848 -71.908,73.430 -70.795,72.895 -69.160,72.545 -67.415,72.584 -67.002,72.752 -66.671,73.122 -66.202,73.356 -65.842,73.919 -66.264,73.724 -66.676,73.122 -66.806,73.154 -68.091,72.497 -69.884,72.538 -71.298,73.267 -72.198,74.200 -72.890,76.216 -72.846,78.732 -72.301,80.129 -72.008,80.611 -71.493,81.059 -70.348,81.778 -69.564,82.073 -68.355,82.257 -65.561,82.267 -64.031,82.067 -61.729,81.600 -60.252,80.828 -59.500,80.563 -59.043,80.248 -58.276,79.265 -58.028,78.724 -57.762,77.898 -57.489,75.941 -57.530,73.573 -57.759,72.171 -57.737,71.592 -58.246,67.424 -58.254,63.940 -58.977,64.401 -59.355,65.774 -59.322,69.435 -59.077,70.113 -58.306,74.815 -57.334,77.183 -56.878,78.028 -55.490,80.027 -54.661,80.782 -54.050,81.030 -52.997,81.016 -52.106,80.689 -48.941,78.591 -48.438,77.880 -47.970,77.427 -47.554,76.037 -47.593,74.571 -47.797,74.232 -47.938,74.520 -47.979,74.947 -47.965,77.035 -47.729,78.151 -47.456,79.436 -46.937,80.503 -46.248,81.546 -45.094,82.871 -43.376,83.858 -41.711,84.143 -40.111,84.104 -38.674,83.742 -37.843,83.343 -35.268,81.371 -34.592,81.034 -34.361,80.810 -33.026,79.338 -31.893,77.795 -31.595,76.884 -31.374,76.550 -31.397,76.430 -32.017,76.164 -32.781,76.292 -33.933,76.753 -34.724,77.399 -35.759,78.568 -36.175,79.380 -36.437,80.185 -36.358,81.353 -36.024,82.552 -34.945,83.811 -33.753,84.864 -32.236,85.759 -29.960,86.635 -27.373,87.033 -25.872,86.973 -24.898,86.568 -24.516,86.294 -24.513,85.811 -24.892,84.677 -25.640,83.472 -27.481,81.105 -28.723,79.278 -29.186,78.302 -29.431,78.016 -29.844,76.636 -29.777,76.204 -29.672,76.401 -28.714,76.402 -28.381,76.570 -28.493,76.735 -27.624,76.759 -26.879,76.919 -22.573,76.892 -21.020,76.692 -19.592,76.708 -19.272,76.934 -18.352,79.066 -18.142,79.991 -17.844,80.700 -17.264,83.485 -17.305,84.084 -17.696,85.281 -19.065,86.713 -19.521,86.878 -19.957,86.563 -20.090,86.260 -20.014,85.526 -19.616,83.611 -18.308,80.993 -16.930,79.097 -14.871,76.585 -13.676,75.522 -12.067,74.923 -11.694,75.183 -11.080,76.718 -10.463,77.576 -10.231,78.143 -8.958,82.965 -8.531,83.480 -7.898,84.577 -7.005,85.299 -6.054,85.894 -5.634,85.996 -4.192,85.939 -2.915,85.582 -1.550,84.655 -1.421,84.396 -0.704,83.706 0.081,81.562 0.693,76.835 0.641,75.347 0.303,73.077 0.367,70.932 0.913,72.457 5.348,78.981 6.223,79.833 7.892,81.934 9.271,83.247 10.645,84.958 11.225,85.980 11.510,86.768 11.603,87.396 11.395,87.668 10.948,87.944 10.139,88.063 7.361,87.819 5.772,87.411 4.950,87.118 2.043,85.750 0.977,85.049 -0.373,83.774 -1.026,83.318 -1.505,82.120 -1.468,81.849 -0.949,81.770 0.016,82.179 0.750,82.646 4.606,84.314 4.962,84.564 7.806,85.544 9.963,86.036 11.798,85.982 12.085,85.819 11.935,85.487 11.513,85.036 " />
			<polyline style="fill:none; stroke:rgb(0, 0, 0); stroke-width:1.720; opacity:1" stroke-linecap="round" points="-45.591,67.064 -44.758,67.004 -44.401,66.844 -43.428,66.889 " />
			<polyline style="fill:none; stroke:rgb(0, 0, 0); stroke-width:1.720; opacity:1" stroke-linecap="round" points="-64.798,71.822 -63.913,72.357 -63.151,72.642 -62.639,73.001 -61.678,73.340 -59.715,73.553 -57.892,73.512 -56.404,73.341 -53.981,72.835 -49.800,71.617 -47.778,71.160 -46.431,70.743 -45.622,70.661 -45.113,70.434 -45.672,70.639 " />
			<polyline style="fill:none; stroke:rgb(0, 0, 0); stroke-width:1.720; opacity:1" stroke-linecap="round" points="-141.431,68.228 -140.235,68.773 -139.614,68.937 -139.142,69.012 -137.315,68.989 -133.598,68.410 -132.590,68.103 -130.726,67.746 -129.702,67.333 -129.125,67.290 " />
			<polyline style="fill:none; stroke:rgb(0, 0, 0); stroke-width:0.573; opacity:1" stroke-linecap="round" points="-168.531,85.062 12.106,85.062 " />
			<polyline style="fill:none; stroke:rgb(0, 0, 0); stroke-width:1.147; opacity:1" stroke-linecap="round" points="-175.741,131.800 -175.829,131.795 -175.482,131.207 -174.982,130.550 -172.007,129.151 -169.053,128.209 -167.360,128.416 -166.529,128.711 -165.686,130.124 -165.224,132.487 -165.277,134.409 -165.805,136.597 -166.650,139.109 -167.301,140.362 -168.623,143.387 -168.952,143.821 -168.884,143.755 -168.914,141.928 " />
			<polyline style="fill:none; stroke:rgb(0, 0, 0); stroke-width:1.147; opacity:1" stroke-linecap="round" points="-160.031,129.459 -159.576,131.865 -159.651,133.170 -160.678,140.463 -160.650,143.931 -161.075,142.755 -161.847,139.154 -162.342,137.818 -162.810,135.942 -163.104,135.253 -164.156,134.139 -165.431,133.567 -166.621,133.369 -169.098,133.537 -170.141,133.792 -172.262,134.540 -172.906,134.887 -173.906,135.141 -173.600,135.258 -172.718,135.303 " />
			<polyline style="fill:none; stroke:rgb(0, 0, 0); stroke-width:1.147; opacity:1" stroke-linecap="round" points="-156.496,140.097 -156.494,141.509 -156.358,141.479 -155.876,141.816 -155.119,141.739 -153.694,141.012 -152.526,139.629 -151.786,137.407 -151.846,136.599 -152.022,136.241 -152.023,136.018 -152.509,135.970 -153.004,136.306 -153.495,137.682 -153.814,138.983 -153.764,140.584 -153.344,141.854 -152.840,142.659 -151.684,143.405 -151.086,143.542 -148.683,143.396 -146.682,142.426 -145.192,141.000 -144.861,140.402 -144.258,138.087 -144.326,137.282 " />
			<polyline style="fill:none; stroke:rgb(0, 0, 0); stroke-width:1.147; opacity:1" stroke-linecap="round" points="-150.429,125.728 -150.454,125.740 " />
			<polyline style="fill:none; stroke:rgb(0, 0, 0); stroke-width:1.147; opacity:1" stroke-linecap="round" points="-129.889,129.189 -129.315,130.168 -128.943,131.089 -128.858,131.688 -128.192,133.485 -128.204,134.117 -128.178,134.023 -128.748,133.011 -129.366,132.256 -129.852,131.437 -129.952,131.035 -130.344,130.474 -131.609,129.865 -132.074,129.926 -132.808,130.323 -133.743,131.123 -134.229,131.667 -134.645,132.389 -135.340,133.868 -135.289,135.948 -134.749,138.275 -134.233,139.137 -132.949,140.767 -132.359,141.241 -130.852,142.008 -130.040,142.660 -127.649,143.355 -126.543,143.498 -125.214,143.443 -124.049,143.245 -121.791,141.623 -121.041,140.858 -119.448,138.880 -118.462,135.927 -117.994,132.478 -118.054,130.325 -118.361,128.808 -118.777,127.788 -119.569,127.505 -119.751,127.521 -120.119,127.781 -120.668,128.358 -121.221,129.254 -121.440,130.883 -121.350,134.327 -120.396,139.235 -119.451,140.439 -118.643,141.202 -117.419,141.876 -116.640,142.018 -115.370,141.965 -114.173,141.526 -113.149,140.760 -112.767,140.595 -111.833,139.508 -111.493,138.744 -111.271,137.787 -110.530,136.312 -110.348,136.171 -110.056,135.621 -110.052,135.278 -110.540,135.180 -110.785,135.192 -111.446,135.496 -112.265,136.070 -112.950,137.055 -113.423,138.001 -113.517,138.579 -113.390,140.073 -113.007,141.422 -112.122,142.590 -111.107,143.181 -110.556,143.147 -109.034,142.625 -107.619,141.375 -107.361,140.942 -107.314,140.669 -107.840,138.612 -108.196,137.772 -108.317,138.258 -108.297,138.729 -107.875,139.745 -106.669,140.898 -106.538,141.150 -104.421,142.418 -103.627,142.375 -102.941,142.479 -101.839,142.058 -101.222,141.300 -100.635,139.236 -100.635,136.582 -100.865,137.170 -100.811,138.478 -100.223,141.208 -99.802,142.221 -99.000,143.436 -98.278,143.835 -97.849,144.206 -97.123,144.393 -95.887,144.185 -95.190,143.954 -94.913,143.746 -94.497,143.219 -94.098,142.270 -93.478,139.225 -93.708,136.133 -93.709,137.232 -93.531,137.694 -92.836,141.119 -91.774,143.309 -91.590,143.554 -90.476,144.304 -89.241,144.250 -88.116,143.944 -86.366,142.772 -85.171,142.119 -81.290,139.065 -81.194,138.467 -81.543,137.982 -81.745,137.936 -82.053,137.621 -82.907,137.230 -84.426,137.268 -85.564,137.724 -86.285,138.222 -86.716,138.810 -87.236,140.211 -87.420,141.481 -87.370,142.890 -87.095,144.037 -86.408,145.060 -85.204,145.778 -84.616,145.876 -83.051,145.711 -81.686,145.052 -80.741,144.480 -80.400,144.163 -78.998,141.611 -78.019,139.262 -77.781,138.111 -77.579,135.368 -77.610,133.642 -77.725,131.907 -78.240,128.259 -78.532,128.937 -78.758,130.408 -78.710,135.317 -77.602,141.271 -77.262,142.390 -76.757,143.164 -76.308,143.521 -75.519,143.759 -73.807,143.726 -72.489,143.404 -70.607,142.419 -69.484,141.479 -68.616,140.993 -68.098,140.432 -67.569,139.624 -67.223,138.285 -67.274,136.802 -67.726,135.364 -68.435,134.920 -69.437,134.583 -70.108,134.630 -70.872,134.864 -71.118,135.070 -72.615,136.824 -73.197,138.553 -73.153,140.987 -72.988,141.793 -72.274,143.141 -71.848,143.662 -70.668,144.503 -69.122,145.151 -67.169,145.642 -63.827,145.568 -62.792,145.391 -61.775,145.157 -61.140,144.869 -60.535,144.528 -60.215,144.113 " />
			<polyline style="fill:none; stroke:rgb(0, 0, 0); stroke-width:1.147; opacity:1" stroke-linecap="round" points="-54.957,140.991 -54.458,142.010 -53.464,143.489 -52.537,144.353 -51.936,145.096 -51.287,146.960 -51.327,147.360 -51.678,148.165 -52.354,148.990 -53.406,150.005 -54.066,149.995 -54.104,149.837 " />
			<polyline style="fill:none; stroke:rgb(0, 0, 0); stroke-width:1.147; opacity:1" stroke-linecap="round" points="-158.801,192.204 -158.373,193.388 -157.826,196.173 -157.232,200.278 -157.233,205.313 -157.234,204.579 -157.469,203.816 -157.701,202.312 -158.111,198.299 -157.996,194.426 -157.776,192.861 -157.081,190.414 -156.067,188.905 -155.099,188.142 -154.554,187.932 -153.384,187.777 -152.786,188.293 -152.340,188.986 -152.097,189.521 -151.748,191.924 -151.786,193.055 -152.031,194.154 -152.922,196.218 -153.221,196.668 -154.251,197.769 -155.275,198.447 -155.933,199.046 -156.846,199.419 -157.318,199.744 -157.449,199.805 -158.050,199.631 -158.059,199.305 -157.716,198.815 -157.313,198.518 -156.170,198.011 -155.423,198.065 -154.318,198.562 -153.494,200.163 -153.308,200.872 -153.360,201.416 -153.246,201.695 -153.258,202.215 -152.925,202.919 -152.915,203.277 -152.565,203.984 -151.510,204.961 -150.808,205.127 -149.802,205.084 -148.174,204.688 -146.271,203.747 -145.659,202.904 -145.184,201.141 -145.231,199.343 -145.331,199.094 -145.661,199.980 -145.581,201.398 -145.472,202.156 -144.766,204.448 -143.468,205.411 -142.912,205.540 -142.369,205.484 -141.247,205.050 -140.741,204.547 -140.021,203.382 -139.459,200.117 -139.504,198.288 -139.911,199.562 -139.862,200.840 -139.537,202.359 -139.233,204.722 -137.874,209.626 -137.122,211.713 -136.515,214.011 -136.192,215.952 -136.472,216.664 -137.279,217.275 -137.572,217.353 -138.357,217.282 -139.143,217.105 -140.516,216.404 -141.372,215.327 -141.689,214.742 -142.295,212.266 -142.210,210.917 -141.932,209.199 -141.314,207.679 -139.777,205.325 -136.319,201.894 -135.223,201.024 -134.520,200.651 -132.762,199.415 -131.467,198.988 -131.075,198.774 -130.851,198.454 -130.714,198.412 -130.656,198.304 -131.971,197.913 -133.035,197.977 -134.289,198.368 -135.104,199.139 -135.576,199.972 -135.739,200.718 -135.645,201.718 -135.339,202.747 -134.246,204.330 -133.985,204.556 -132.570,205.218 -132.018,205.326 -131.291,205.260 -129.681,204.823 -129.016,204.506 -128.656,203.983 -128.294,202.940 -128.314,202.666 -128.725,201.237 -129.404,199.986 -129.742,199.072 -129.991,199.824 -129.937,200.912 -129.309,203.027 -128.784,203.699 -127.971,204.460 -125.894,204.508 -124.737,204.101 -123.632,203.288 -122.706,201.586 -121.700,198.797 -121.480,198.475 -121.046,199.138 -119.841,203.940 -119.886,205.944 -119.419,204.231 -118.910,203.084 -117.907,199.866 -117.070,198.424 -116.808,197.588 -116.308,197.309 -116.037,197.338 -115.539,197.619 -115.272,198.033 -115.040,199.096 -113.102,204.205 -112.638,204.822 -111.703,205.664 -110.667,206.196 -109.680,206.423 -108.292,206.396 -107.584,205.987 -107.293,204.997 " />
			<polyline style="fill:none; stroke:rgb(0, 0, 0); stroke-width:1.147; opacity:1" stroke-linecap="round" points="-93.239,207.431 -92.363,207.249 -91.532,206.739 -90.291,205.449 -89.193,203.970 -88.754,203.094 -88.038,200.415 -87.431,195.240 -87.496,192.638 -87.718,191.433 -87.655,190.072 -87.770,189.720 -87.749,188.910 -87.878,189.639 -87.743,195.412 -87.760,199.280 -88.263,203.858 -88.313,207.500 -87.668,205.829 -87.309,203.494 -85.988,199.221 -85.522,198.279 -85.046,197.856 -84.600,197.724 -84.061,197.971 -83.598,198.475 -83.241,199.095 -82.971,200.734 -82.032,204.951 -81.061,206.126 -79.767,206.936 -79.355,207.030 -78.327,206.957 -76.326,206.627 -75.032,205.936 -74.398,205.474 -73.994,204.920 -73.814,204.530 -73.460,202.071 -73.850,200.575 -74.688,198.896 -75.059,198.494 -75.522,198.353 -75.805,198.560 -76.440,199.832 -76.506,200.432 -76.420,202.054 -75.847,205.095 -75.693,205.528 -74.981,206.746 -73.702,207.582 -72.374,207.493 -71.204,207.288 -69.201,206.518 -67.364,205.408 -66.309,204.280 -66.053,203.810 -65.840,203.065 -65.569,200.914 -65.602,199.666 -66.413,195.498 -66.371,195.079 -66.848,195.892 -66.935,196.227 -66.882,198.002 -66.420,199.573 -66.017,200.367 -65.836,200.450 -65.126,200.422 -64.587,200.106 -64.024,199.397 -63.856,198.825 -63.323,197.886 -62.737,199.664 -62.272,201.733 -61.393,203.065 -60.505,203.830 -58.206,204.780 -56.777,204.937 -55.683,204.843 -53.796,204.378 -52.466,203.436 -51.758,202.132 -51.390,199.618 -51.420,198.698 -51.760,196.790 -52.024,195.750 -52.260,195.340 -52.849,195.331 -53.134,195.452 -54.239,196.456 -55.016,198.212 -55.183,199.091 -55.092,200.504 -54.697,202.443 -54.284,203.330 -53.142,204.912 -52.567,205.412 -50.706,206.266 -50.162,206.416 -48.797,206.547 -46.805,206.520 -44.673,206.164 -43.564,205.809 -43.056,205.411 -42.760,205.037 " />
			<polyline style="fill:none; stroke:rgb(0, 0, 0); stroke-width:1.147; opacity:1" stroke-linecap="round" points="-23.392,201.943 -24.219,201.340 -24.638,200.556 -25.008,200.266 -25.061,200.006 -25.537,199.555 -26.815,198.953 -27.929,198.948 -29.219,199.577 -29.757,200.594 -29.830,200.989 -29.754,202.046 -29.311,203.658 -28.702,204.735 -28.159,205.222 -26.642,206.172 -26.242,206.295 -24.928,206.195 -23.686,205.808 -23.206,205.351 -22.937,204.898 -22.483,203.070 -22.520,202.539 -22.956,201.219 -22.941,200.852 -23.052,201.047 -23.027,201.749 -22.482,203.172 -21.869,203.971 -21.417,204.376 -20.180,205.133 -19.759,205.234 -19.067,205.165 -17.962,204.777 -17.216,204.283 -16.238,203.558 -15.107,202.365 -14.261,200.996 -13.295,198.783 -12.965,200.431 -12.973,204.764 -11.795,203.677 -10.884,202.525 -8.968,199.143 -7.957,197.548 -7.353,196.961 -7.250,196.744 -6.869,196.924 -6.415,198.793 -5.266,201.504 -4.572,202.288 -3.329,203.109 -2.496,203.334 -1.205,203.294 0.663,202.891 2.816,201.724 4.658,199.737 5.341,198.222 5.531,197.167 5.476,196.260 5.362,195.915 5.113,195.464 4.703,195.111 3.952,194.922 3.153,195.153 1.704,196.552 1.337,197.364 0.617,198.494 0.083,201.849 0.153,202.868 0.278,203.233 1.157,204.648 2.294,205.210 2.692,205.286 4.145,205.157 5.540,204.537 6.457,203.968 7.508,202.666 8.491,200.449 8.984,197.600 9.170,194.846 9.137,187.660 9.087,193.643 9.281,195.324 9.494,199.029 9.972,202.507 10.156,203.261 10.474,203.762 10.660,204.456 11.448,205.547 12.491,205.383 " />
			<polyline style="fill:none; stroke:rgb(0, 0, 0); stroke-width:1.147; opacity:1" stroke-linecap="round" points="22.587,204.604 23.335,204.833 24.263,204.776 25.750,204.158 26.186,203.847 27.557,202.276 29.218,199.611 29.854,197.563 30.606,192.321 30.649,189.058 29.832,189.952 29.234,191.425 28.394,194.659 27.376,199.452 27.114,202.068 27.156,203.923 27.569,205.327 28.216,205.884 28.673,206.053 29.235,205.979 31.013,205.371 33.917,203.842 35.131,202.895 36.616,201.124 37.014,200.595 37.942,198.800 38.248,197.524 38.730,193.287 38.674,191.060 38.552,190.269 38.572,189.099 38.419,187.938 38.454,185.070 38.333,184.882 38.361,184.666 37.937,185.948 37.990,186.791 37.788,189.139 37.808,190.805 37.594,193.286 36.747,199.702 36.613,203.152 36.608,202.744 37.539,199.875 39.097,196.774 40.516,194.543 40.879,194.628 41.013,194.894 42.469,202.743 43.268,204.179 44.174,205.084 44.790,205.225 45.343,205.173 47.093,204.419 47.835,203.828 48.717,202.766 49.161,201.349 49.672,197.699 49.388,194.985 48.770,196.131 48.684,196.710 48.775,197.674 48.746,199.211 49.172,201.565 49.146,201.950 49.493,203.040 49.993,203.974 50.317,204.246 50.679,204.341 52.021,204.291 53.261,203.677 54.409,202.648 55.008,201.622 56.177,197.731 56.592,193.555 56.553,189.669 56.609,192.712 57.017,194.372 57.821,196.707 58.899,198.933 61.051,202.549 63.046,205.515 63.214,206.006 63.156,206.071 60.656,206.025 59.290,205.424 57.692,204.516 56.824,203.723 55.802,202.469 55.666,202.157 55.764,202.269 56.398,202.267 57.908,202.592 58.862,202.990 60.967,203.529 62.541,203.412 64.830,203.442 65.482,203.322 66.094,203.026 66.320,202.530 66.164,201.861 65.758,200.912 " />
			<polyline style="fill:none; stroke:rgb(0, 0, 0); stroke-width:1.147; opacity:1" stroke-linecap="round" points="50.982,182.699 51.327,183.009 52.284,183.502 52.577,183.830 52.995,184.729 52.771,185.310 " />
			<polyline style="fill:none; stroke:rgb(0, 0, 0); stroke-width:1.147; opacity:1" stroke-linecap="round" points="20.780,195.723 22.195,196.063 24.467,195.976 28.953,195.409 31.677,194.723 " />
			<polyline style="fill:none; stroke:rgb(0, 0, 0); stroke-width:1.147; opacity:1" stroke-linecap="round" points="74.500,206.814 75.603,206.520 76.338,206.096 77.374,204.727 77.919,203.608 78.524,200.157 78.473,199.045 78.136,197.608 78.172,197.289 77.989,196.413 78.018,195.764 77.464,197.527 77.495,197.991 77.296,199.138 77.323,200.264 77.212,201.004 77.293,204.947 78.012,206.528 78.338,206.803 79.168,207.055 80.274,207.018 82.127,206.531 84.236,205.502 84.496,205.262 85.257,204.191 85.674,202.390 85.623,200.834 85.167,198.019 84.341,194.889 84.251,195.102 84.241,195.756 84.439,196.157 84.590,196.878 85.092,198.022 85.968,199.347 88.362,202.225 91.540,204.784 92.049,205.315 92.789,206.248 93.148,207.059 93.131,207.244 92.867,207.603 92.354,208.054 91.114,208.683 90.694,208.747 88.945,208.663 87.584,208.363 87.121,208.160 85.899,207.194 85.623,206.736 85.332,206.486 85.252,206.316 85.380,205.714 86.667,205.231 87.246,205.282 89.139,205.770 90.131,206.136 90.258,206.326 91.126,206.570 91.577,206.818 91.813,206.793 " />
			<polyline style="fill:none; stroke:rgb(0, 0, 0); stroke-width:1.147; opacity:1" stroke-linecap="round" points="81.772,189.386 81.985,189.506 " />
			<polyline style="fill:none; stroke:rgb(0, 0, 0); stroke-width:1.147; opacity:1" stroke-linecap="round" points="106.203,200.932 108.291,199.152 109.914,198.299 111.307,197.658 112.754,197.260 113.131,197.235 113.312,197.358 113.741,198.785 113.721,199.285 113.232,201.644 111.995,204.722 111.534,205.574 110.922,206.375 110.719,206.889 111.034,206.182 111.442,205.811 112.373,204.318 114.125,201.902 116.000,199.632 116.780,198.171 117.015,199.056 116.978,201.893 117.081,203.431 117.191,203.703 117.163,205.497 118.054,204.718 118.499,203.834 119.103,203.110 121.204,199.511 121.506,198.609 121.751,198.208 121.731,200.747 121.611,201.335 121.696,203.613 122.516,205.095 122.943,205.455 123.315,205.584 125.013,205.549 125.701,205.264 125.972,205.287 127.223,204.869 127.993,204.102 128.377,203.521 128.721,202.541 129.162,200.141 129.120,198.381 128.996,198.093 128.981,198.217 128.410,198.713 128.210,199.451 128.246,201.551 128.577,202.564 129.027,204.655 129.915,205.980 131.573,206.845 132.312,206.976 132.856,206.928 134.329,206.524 135.440,205.939 136.334,204.811 136.510,204.424 136.920,202.220 136.881,201.583 136.256,199.052 136.280,200.260 136.871,203.545 137.758,206.763 139.316,210.808 140.091,213.311 140.507,215.022 140.740,216.825 140.581,218.837 140.183,219.663 139.449,220.292 138.241,220.669 137.504,220.789 135.904,220.736 134.289,220.237 132.325,219.291 131.602,218.819 130.207,217.425 129.520,216.361 129.238,215.520 129.143,214.851 129.164,213.726 129.504,213.225 130.149,213.002 131.249,213.319 132.705,213.534 134.955,213.751 136.114,213.702 137.071,213.813 141.629,213.800 142.337,213.687 143.113,213.704 144.195,213.383 145.320,213.203 145.555,213.051 " />
			<polyline style="fill:none; stroke:rgb(0, 0, 0); stroke-width:1.147; opacity:1" stroke-linecap="round" points="-184.119,234.939 -183.122,235.315 -182.674,235.239 -181.802,234.740 -180.263,233.170 -179.166,231.694 -178.747,230.875 -177.969,228.198 -177.648,225.212 -177.636,218.554 -177.298,219.590 -177.361,222.427 -178.005,227.472 -178.791,232.194 -178.746,234.709 -178.642,235.185 -177.775,234.426 -177.037,233.075 -175.931,230.142 -175.667,228.794 -175.278,228.088 -175.291,228.360 -174.988,228.884 -173.715,232.712 -173.159,233.430 -172.515,234.019 -171.486,234.659 -170.807,234.825 -169.701,234.785 -167.163,234.069 -166.005,233.044 -165.547,232.316 -164.758,229.998 -164.698,228.747 -164.763,228.579 -165.483,228.448 -167.114,229.504 -167.386,229.793 -168.204,231.435 -168.148,232.682 -167.740,233.872 -166.602,235.124 -165.997,235.366 -165.358,235.322 -164.257,234.795 -163.601,233.079 -163.597,232.323 -164.295,229.613 -164.004,230.535 -162.497,233.045 -161.745,233.707 -160.373,234.510 -159.407,234.411 -158.574,234.111 -157.058,232.900 -156.039,231.273 -155.899,230.520 -155.935,229.160 -156.328,230.002 -156.204,232.820 -155.616,234.833 -155.198,235.576 -155.193,235.323 -154.826,234.534 -153.958,230.353 -153.430,228.591 -153.425,228.693 -152.727,229.257 -152.305,229.996 -151.710,231.176 -151.556,231.930 -150.824,233.351 -150.263,234.158 -150.131,234.691 -149.334,235.775 -148.422,236.437 -147.847,236.581 -147.327,236.537 -145.781,236.132 -143.296,235.198 -141.101,233.732 -140.268,232.761 -139.713,231.614 -139.426,230.100 -139.457,229.401 -139.801,228.224 -140.105,227.697 -141.034,226.663 -141.631,226.557 -141.916,226.590 -142.728,226.970 -143.212,227.496 -143.598,228.625 -143.777,229.959 -143.738,231.574 -142.280,235.468 -141.847,236.013 -141.231,236.370 -140.975,236.662 -140.530,236.849 -139.968,236.796 -139.505,236.531 -139.086,236.079 -138.084,234.609 -137.155,232.399 -136.986,231.759 -136.471,229.355 -136.004,225.930 -136.044,221.638 -136.218,221.144 -136.175,220.633 -136.437,220.983 -136.786,221.887 -137.042,223.161 -137.125,224.468 -137.111,228.135 -136.720,230.241 -135.678,232.755 -134.938,234.152 -134.292,235.047 -133.529,235.753 -133.120,235.898 -131.640,235.483 -130.867,235.100 -130.548,234.830 -129.925,233.879 -128.857,231.830 -128.427,230.255 -128.012,228.154 -128.052,227.616 -128.567,228.940 -128.519,231.480 -127.966,233.601 -127.562,234.474 -126.987,235.113 -125.945,235.512 -125.187,235.463 -124.311,235.178 -123.777,234.879 -123.170,234.292 -122.417,232.935 -122.015,230.710 -122.057,229.269 -122.169,229.728 -122.142,231.023 -121.596,233.169 -120.799,234.739 -120.063,235.634 -119.089,236.543 -116.807,237.428 -115.130,237.334 -113.776,236.939 -113.190,236.396 -112.831,234.974 -112.849,234.604 -113.803,231.560 -115.938,225.915 -115.796,226.404 -114.113,228.601 -112.666,229.968 -112.367,230.039 -111.998,230.031 -111.681,229.893 -111.393,229.347 -110.883,227.669 -110.885,225.891 -109.550,227.835 -108.348,228.962 -107.554,229.170 -106.696,229.134 -106.444,229.087 -105.249,228.404 -105.911,229.224 -105.996,229.638 -106.535,230.751 -106.857,232.188 -106.810,233.891 -106.224,236.308 -106.019,236.621 -105.159,237.393 -104.609,237.606 -103.310,237.574 -101.646,236.985 -100.726,236.247 -100.398,235.862 -99.619,234.456 -99.071,232.960 -98.803,231.114 -98.465,229.938 -98.510,228.959 -98.414,232.902 -97.681,236.272 -96.797,237.270 -96.230,237.697 -95.318,237.874 -93.857,237.836 -92.742,237.476 -92.031,237.075 -91.498,236.717 -90.671,235.805 -90.251,235.244 -89.285,233.246 -88.136,230.535 -87.739,229.123 -87.585,227.911 -87.670,227.891 -87.460,227.319 -87.383,222.622 -87.087,220.883 -87.535,222.272 -87.571,223.899 -87.844,225.716 -87.802,233.562 -87.111,236.262 -86.834,237.010 -86.309,237.249 -86.089,237.522 -85.075,237.972 -83.257,237.929 -81.904,237.565 -81.031,237.067 -80.606,236.644 -79.837,235.162 -79.582,234.153 -79.465,232.944 -79.173,231.520 -79.214,229.618 -79.216,233.702 -78.568,236.669 -78.251,237.420 -77.507,237.895 -77.650,238.028 -76.321,237.967 -74.334,237.484 -71.806,235.884 -70.894,235.147 -69.233,233.124 -68.310,231.320 -67.988,232.367 -68.044,237.473 -68.317,238.441 -68.769,239.458 -68.828,238.359 -68.448,236.465 -67.670,234.534 -66.952,233.070 -66.507,232.990 -66.073,233.459 -65.604,235.720 -64.954,237.246 -64.400,238.273 -63.664,239.039 -61.665,240.087 -61.296,240.151 -59.681,240.061 -57.848,239.763 -56.660,239.364 -53.853,238.112 -53.377,237.786 -52.263,236.018 -51.850,234.344 -51.897,233.275 -52.643,231.285 -52.945,230.828 -53.337,230.597 -54.136,230.684 -55.069,231.031 -55.766,231.572 -56.137,232.096 -56.618,233.415 -56.772,234.434 -56.721,236.321 -56.607,236.741 -55.886,237.825 -55.446,238.221 -54.568,238.754 -54.020,239.000 -53.087,239.174 -51.801,239.133 -50.812,238.856 -48.855,237.669 -48.573,237.323 -48.324,236.704 -48.073,235.230 -48.102,232.378 -48.217,232.004 -48.190,231.664 -48.366,232.145 -48.325,233.773 -48.093,234.675 -47.132,241.181 -46.432,242.770 -44.279,250.424 -44.098,251.677 -43.716,253.215 -43.767,253.608 -44.668,253.458 -45.981,252.653 -48.921,249.524 -49.424,248.512 -50.764,246.366 -51.733,244.147 -52.986,240.037 -52.977,240.135 -53.901,240.414 -54.130,240.662 -54.794,241.642 -55.667,243.940 -55.611,246.217 -55.446,247.043 -55.111,247.848 -54.739,248.376 -52.930,249.932 -51.639,250.620 -49.858,251.139 -47.454,251.063 -45.539,250.829 -44.745,250.582 -43.054,249.898 -41.846,248.542 -41.776,248.396 -41.947,248.422 " />
			<polyline style="fill:none; stroke:rgb(0, 0, 0); stroke-width:1.147; opacity:1" stroke-linecap="round" points="-71.304,224.516 -71.334,224.520 " />
			<polyline style="fill:none; stroke:rgb(0, 0, 0); stroke-width:1.147; opacity:1" stroke-linecap="round" points="-87.836,228.694 -85.528,229.142 -82.532,229.096 -79.271,228.601 -77.009,227.920 -75.719,227.804 -74.116,227.342 -73.940,227.386 " />
			<polyline style="fill:none; stroke:rgb(0, 0, 0); stroke-width:1.147; opacity:1" stroke-linecap="round" points="-95.078,220.253 -95.111,220.261 " />
			<polyline style="fill:none; stroke:rgb(0, 0, 0); stroke-width:1.147; opacity:1" stroke-linecap="round" points="-38.218,235.311 -37.630,235.204 -37.393,235.003 " />
			<polyline style="fill:none; stroke:rgb(0, 0, 0); stroke-width:1.147; opacity:1" stroke-linecap="round" points="-11.483,225.119 -10.685,226.718 -9.417,234.691 -9.402,235.431 -9.136,236.357 -9.136,237.016 " />
			<polyline style="fill:none; stroke:rgb(0, 0, 0); stroke-width:1.147; opacity:1" stroke-linecap="round" points="-18.306,225.190 -16.378,223.796 -15.291,223.330 -14.540,222.724 -12.727,221.875 -11.188,221.395 -9.382,221.129 -8.280,221.495 -7.352,222.024 -5.808,224.515 -4.998,226.483 -4.674,227.912 -4.692,228.277 -5.006,229.006 -5.776,229.804 -6.295,230.078 -7.908,230.648 -11.173,231.420 -11.904,231.490 -13.953,231.403 -15.675,231.020 -16.173,230.771 -12.669,230.138 " />
			<polyline style="fill:none; stroke:rgb(0, 0, 0); stroke-width:1.147; opacity:1" stroke-linecap="round" points="-2.280,232.414 -1.429,232.702 0.022,232.629 2.275,231.878 2.760,230.938 2.734,230.707 2.098,230.124 1.394,229.689 -1.032,229.093 -1.554,229.149 -2.249,229.553 -2.634,229.955 -2.763,230.317 -2.705,230.891 -2.344,231.886 -1.740,232.790 -0.867,233.856 0.287,234.598 3.187,235.736 4.334,235.901 6.186,235.751 7.657,235.372 8.403,234.968 9.205,234.353 10.165,233.133 10.465,232.060 10.439,231.654 9.862,230.377 9.177,230.033 8.521,229.944 8.157,230.189 7.808,230.597 7.344,231.423 7.210,232.164 7.263,233.874 7.583,235.313 8.001,236.132 8.457,236.617 9.964,237.653 11.395,237.501 11.969,237.356 12.407,237.124 12.572,236.921 12.915,235.932 12.898,235.648 12.629,235.102 12.300,234.728 11.931,233.849 10.797,232.055 10.489,231.399 9.835,230.724 9.792,230.504 11.930,231.573 15.784,232.997 17.567,232.937 18.577,232.631 19.536,231.868 20.035,230.349 19.985,229.428 19.762,230.079 19.810,230.895 20.188,232.553 20.727,236.837 22.340,242.810 22.702,244.817 23.126,245.750 23.100,245.891 23.070,245.764 23.506,244.853 23.726,243.893 23.667,242.430 23.345,240.121 22.477,235.817 21.184,231.228 20.789,229.198 20.316,227.981 20.141,227.238 20.170,226.767 20.591,226.725 21.421,227.091 25.155,229.811 25.405,230.081 25.660,230.650 26.143,231.221 26.625,232.763 26.586,233.417 26.254,234.073 25.299,235.159 24.174,235.685 23.026,236.409 22.100,236.712 21.853,236.682 21.842,236.605 25.141,236.632 25.621,236.747 26.187,236.741 28.585,236.026 30.599,234.973 31.598,234.163 31.994,233.688 32.583,232.437 33.329,226.278 33.272,223.242 33.056,221.832 33.006,220.416 32.831,220.087 32.044,220.373 31.166,221.618 30.977,222.057 30.615,224.315 30.651,228.449 31.390,232.627 32.272,234.689 33.294,236.052 33.701,236.399 34.814,236.879 36.027,237.026 36.998,236.982 38.395,236.662 40.054,235.776 40.808,235.197 42.053,233.573 42.642,232.268 43.302,229.467 43.129,228.606 42.771,228.472 42.391,228.518 41.400,229.378 40.488,231.127 39.932,232.632 39.870,233.055 39.957,234.485 40.353,236.399 40.667,236.892 41.430,237.557 42.941,238.235 49.753,238.303 " />
			<polyline style="fill:none; stroke:rgb(0, 0, 0); stroke-width:1.147; opacity:1" stroke-linecap="round" points="62.064,237.933 63.997,237.483 64.709,237.025 66.429,234.748 67.078,233.465 67.482,230.675 66.975,228.100 66.565,227.143 66.082,225.356 66.828,226.409 67.200,227.176 68.928,229.913 71.568,233.431 72.191,235.053 72.514,236.517 72.298,237.004 70.653,237.885 70.295,237.952 69.228,237.871 67.865,237.558 66.600,237.035 65.637,236.168 65.256,235.517 64.887,235.281 65.388,235.299 67.042,235.931 70.619,236.988 71.878,237.120 73.647,237.070 74.315,236.906 75.070,236.481 76.532,235.372 77.277,234.613 77.897,233.772 78.358,232.461 78.988,229.917 78.936,229.236 78.210,229.122 77.624,229.427 76.810,230.093 75.894,231.474 75.432,232.424 75.072,233.805 75.121,234.749 75.448,236.080 75.859,236.632 76.962,237.389 77.244,237.461 78.380,237.380 80.037,236.902 80.871,236.306 81.420,235.570 81.745,234.477 81.716,233.899 81.323,232.641 80.582,230.853 80.511,231.693 80.891,232.818 81.302,233.550 82.185,234.609 83.977,236.024 85.072,236.476 85.508,236.847 86.084,236.986 87.018,236.938 87.939,236.080 88.220,235.649 88.404,235.102 89.094,232.006 89.095,230.193 88.595,230.455 88.184,230.878 88.027,231.158 87.824,232.148 87.861,233.179 88.400,235.196 88.923,236.144 90.209,236.981 90.622,237.088 91.964,237.020 93.057,236.758 94.175,236.259 94.610,235.914 95.601,234.918 96.009,233.978 96.431,231.330 96.302,228.096 96.255,230.113 96.541,231.433 97.615,234.958 102.062,243.667 103.115,245.225 103.522,246.529 103.744,247.922 103.287,248.498 102.967,248.694 102.014,248.834 100.910,248.773 99.559,248.431 96.113,245.905 94.090,243.316 93.235,241.760 92.393,239.671 92.662,240.304 93.818,241.852 94.407,242.375 94.953,242.658 95.677,243.215 96.912,243.790 98.556,244.289 99.824,244.471 102.090,244.474 104.498,243.812 104.820,243.529 " />
			<polyline style="fill:none; stroke:rgb(0, 0, 0); stroke-width:1.147; opacity:1" stroke-linecap="round" points="119.043,235.741 118.818,236.488 118.885,236.971 118.753,236.703 118.786,235.745 119.200,233.876 120.636,229.357 121.317,226.829 122.293,224.111 122.722,222.516 124.258,218.398 124.714,216.375 125.107,215.661 124.812,216.311 124.667,216.992 123.856,225.378 123.154,228.902 121.598,233.238 120.705,234.806 119.554,236.267 118.924,236.839 118.643,236.950 118.278,236.886 117.909,236.662 117.037,235.623 116.256,234.316 115.647,232.543 114.902,231.097 114.503,229.759 114.522,229.158 115.055,229.652 116.581,231.955 117.305,232.579 119.098,233.717 120.206,233.905 121.591,233.894 " />
			<polyline style="fill:none; stroke:rgb(0, 0, 0); stroke-width:1.147; opacity:1" stroke-linecap="round" points="138.277,237.400 141.221,235.516 142.039,234.868 144.682,232.277 144.807,232.047 146.758,227.834 147.580,225.076 148.168,222.026 148.499,219.322 149.061,217.026 149.001,216.554 148.126,219.406 147.404,222.616 146.103,226.457 144.817,229.360 143.435,231.563 142.619,233.252 142.146,233.588 142.093,233.832 142.673,233.231 143.661,232.450 146.894,228.928 149.025,226.884 148.139,231.192 148.198,232.772 148.784,234.812 149.399,235.415 150.134,235.860 150.529,235.989 152.435,235.881 153.490,235.688 155.536,235.059 156.659,234.335 157.064,234.179 158.401,233.085 158.664,232.577 159.253,231.822 159.850,230.528 160.080,229.575 160.516,228.779 159.868,229.409 157.640,231.071 156.003,232.760 155.413,234.120 155.504,235.151 155.950,235.911 156.939,236.720 157.368,236.812 158.067,236.746 159.027,236.399 160.413,235.466 160.692,235.176 161.472,233.766 161.695,233.215 162.169,231.128 162.484,230.468 161.881,231.301 161.638,231.895 161.157,233.891 161.207,235.456 161.316,236.000 161.851,236.830 162.645,236.790 163.070,236.628 165.916,235.187 167.453,233.936 168.035,232.855 168.344,231.435 168.635,230.805 168.638,230.406 168.351,231.175 167.838,231.846 167.398,233.743 167.390,236.629 167.833,237.661 168.954,238.782 169.286,238.877 170.033,238.809 171.163,238.462 172.469,237.730 172.900,237.307 173.646,236.070 173.906,235.180 174.154,233.276 174.117,231.622 173.901,230.610 173.944,229.473 174.475,230.084 175.472,230.920 176.273,231.446 177.415,231.993 179.957,232.418 181.913,232.370 182.957,231.931 183.364,230.947 183.303,229.621 182.847,227.885 182.496,227.004 182.017,226.878 181.819,226.891 181.055,227.349 180.630,227.812 180.084,228.757 179.549,229.439 179.181,230.692 179.082,231.474 179.131,232.805 179.299,233.494 180.561,235.507 181.461,236.456 182.709,236.912 183.636,237.389 185.065,237.652 186.772,237.661 " />
			<polyline style="fill:none; stroke:rgb(0, 0, 0); stroke-width:1.147; opacity:1" stroke-linecap="round" points="-186.729,267.464 -186.949,267.444 -186.012,267.858 -185.248,267.837 -184.919,267.557 -183.111,266.772 -181.847,265.782 -180.244,264.306 -178.738,262.466 -178.493,262.088 -178.363,261.636 -178.097,261.294 -177.792,260.269 -177.711,259.721 -177.734,255.874 -178.348,256.790 -178.822,258.677 -179.575,267.771 -179.786,268.859 -180.074,272.486 -180.500,275.773 -180.497,278.947 -180.683,278.268 -180.693,277.160 -180.803,276.574 -180.768,274.865 -181.164,269.508 -181.083,264.666 -180.547,258.199 -180.171,256.782 -179.413,255.068 -179.198,254.308 -178.444,253.052 -178.017,252.654 -177.732,252.520 -176.718,252.315 -176.155,252.504 -175.242,253.147 -174.319,254.217 -173.879,255.083 -173.747,255.739 -173.178,257.010 -172.922,258.159 -172.567,261.329 -172.597,262.370 -173.048,264.467 -173.807,266.312 -174.403,266.984 -175.289,267.568 -176.760,268.190 -177.673,268.100 -178.634,267.675 -179.224,266.960 -179.200,266.694 -178.961,266.341 -177.244,265.881 -174.825,265.435 -173.612,265.491 -172.891,265.251 -172.341,265.277 -170.343,264.583 -169.378,263.896 -168.789,263.283 -168.174,261.617 -167.942,260.670 -167.982,259.844 -168.289,258.286 -168.255,257.656 -168.533,255.645 -168.493,254.949 -168.605,254.661 -168.584,254.204 -168.077,256.082 -167.377,257.318 -166.992,257.753 -166.805,258.190 -166.349,258.793 -165.811,259.002 -164.993,258.912 -163.803,258.254 -163.585,257.795 -164.255,258.917 -164.660,260.896 -164.608,262.692 -164.556,263.364 -163.834,266.120 -162.978,266.766 -162.254,266.998 -161.793,266.952 -160.057,266.585 -158.659,266.099 -156.303,264.799 -155.451,263.906 -155.197,263.475 -154.984,262.733 -154.713,260.990 -154.733,260.151 -155.165,258.685 -155.957,257.945 -156.610,258.232 -156.884,258.538 -157.309,259.701 -157.277,263.618 -156.769,265.915 -156.403,267.021 -155.976,267.403 -154.827,268.123 -154.553,268.188 -153.343,268.098 -151.352,267.758 -150.149,267.358 -148.485,266.499 -146.674,265.303 -146.048,264.530 -145.608,263.226 -145.286,260.220 -145.303,259.267 -146.011,254.094 -146.382,252.538 -146.463,251.751 -146.426,250.472 -146.543,250.344 -146.986,252.554 -147.045,253.701 -147.031,263.276 -146.477,266.087 -146.079,266.891 -144.629,268.286 -143.895,268.608 -142.626,268.518 -142.088,268.295 -141.266,267.706 -139.774,266.110 -139.282,264.968 -138.644,262.198 -138.353,257.963 -138.401,248.923 -138.731,250.037 -138.657,252.029 -138.675,266.388 -138.381,267.427 -138.015,267.573 -137.214,267.582 -136.379,267.307 -135.614,266.902 -134.157,265.511 -133.301,263.848 -133.199,262.549 -132.808,260.238 -132.772,258.552 -132.855,258.837 -133.336,259.552 -133.497,260.470 -133.441,261.865 -132.767,265.103 -131.884,266.446 -130.594,267.222 -130.181,267.322 -129.022,267.150 -128.058,266.758 -127.336,266.009 -126.728,264.899 -126.025,261.303 -126.153,258.707 -126.279,259.091 -126.255,260.016 -126.367,260.375 -126.347,263.186 -125.520,269.413 -124.089,274.083 -123.198,275.642 -120.904,280.355 -121.534,280.526 -122.141,280.499 -124.162,279.563 -126.378,277.250 -127.787,275.649 -128.643,274.412 -130.264,272.637 -131.369,271.541 -133.174,270.287 -133.551,270.122 -134.939,269.796 -135.235,269.812 -136.314,270.478 -136.722,271.084 -137.286,272.223 -137.420,273.035 -137.360,274.294 -137.047,275.821 -136.838,276.262 -136.064,277.477 -135.678,277.906 -133.997,279.352 -132.185,280.284 -129.352,280.976 -128.182,280.894 -126.536,280.618 -124.074,279.736 -122.356,278.803 -121.854,278.216 -121.663,277.397 -121.878,276.993 -122.553,276.292 " />
			<polyline style="fill:none; stroke:rgb(0, 0, 0); stroke-width:1.147; opacity:1" stroke-linecap="round" points="-154.995,255.203 -153.700,256.336 -152.428,256.893 -150.379,257.540 -147.976,257.790 -143.916,257.756 -142.490,257.591 -140.947,257.555 -135.498,257.540 -135.191,257.652 -134.381,257.626 -134.117,257.788 -133.884,257.778 -133.763,257.857 -133.674,258.409 " />
			<polyline style="fill:none; stroke:rgb(0, 0, 0); stroke-width:1.147; opacity:1" stroke-linecap="round" points="-109.670,262.824 -109.492,262.034 -109.554,261.772 -109.352,261.786 -108.603,261.324 -108.027,261.170 -107.010,260.578 -106.214,260.346 -104.719,259.448 -103.032,258.797 -100.810,258.257 -100.561,258.294 -100.289,258.484 -99.855,259.798 -99.876,260.182 -100.245,261.491 -101.556,264.620 -102.702,265.817 -103.357,266.729 -104.458,267.752 -104.368,267.531 -101.831,264.878 -98.986,261.628 -98.062,260.782 -97.712,260.338 -96.822,258.780 -96.817,259.044 -96.517,259.870 -96.586,261.301 -96.782,262.557 -96.758,265.269 -96.518,265.541 -96.161,266.287 -95.853,266.411 -94.961,266.360 -93.090,265.965 -90.722,265.199 -88.845,264.081 -87.825,263.013 -87.246,262.242 -87.011,261.700 -86.759,259.955 -86.785,259.326 -87.084,258.222 -87.491,257.545 -87.857,257.173 -88.397,256.982 -89.287,257.513 -90.108,258.587 -90.981,261.045 -91.204,262.700 -91.048,264.883 -90.751,266.120 -90.330,266.633 -89.096,267.494 -88.296,267.679 -87.047,267.608 -84.726,267.262 -81.526,266.175 -80.044,265.430 -78.961,264.715 -77.967,264.205 -76.342,262.780 -75.987,262.082 -75.620,261.762 -75.351,260.906 -75.396,260.612 -76.392,260.178 -76.979,260.241 -78.636,260.936 -79.802,261.692 -80.522,262.572 -81.238,264.156 -81.343,264.922 -81.269,265.780 -80.874,266.790 -80.176,267.397 -79.574,267.646 -78.890,267.562 -77.373,267.050 -76.814,266.639 -75.574,265.386 -75.077,264.303 -74.507,261.675 -74.561,260.752 -74.779,261.393 -74.727,262.392 -74.049,265.058 -73.480,265.819 -72.574,266.684 -72.266,266.748 -70.985,266.669 -69.530,266.278 -68.230,265.487 -66.438,263.184 -65.733,262.047 -65.081,259.853 -64.790,256.768 -64.810,255.984 -65.235,252.914 -65.594,251.471 -65.825,250.952 -65.828,250.684 -65.827,251.116 -65.539,252.209 -65.230,254.556 -65.168,266.240 " />
			<polyline style="fill:none; stroke:rgb(0, 0, 0); stroke-width:1.147; opacity:1" stroke-linecap="round" points="-72.411,256.136 -71.582,256.376 -70.478,256.317 -69.769,256.435 -68.463,256.411 -66.064,255.791 -62.957,255.789 -62.129,255.946 " />
			<polyline style="fill:none; stroke:rgb(0, 0, 0); stroke-width:1.147; opacity:1" stroke-linecap="round" points="-46.506,267.005 -45.400,267.324 -43.221,266.466 -42.659,266.054 -40.476,263.945 -39.930,263.124 -39.554,262.066 -38.221,259.191 -37.354,255.116 -37.084,252.531 -36.700,250.401 -36.039,248.848 -35.793,247.753 -35.495,247.342 -36.129,248.414 -36.650,250.357 -37.576,254.781 -38.313,259.029 -39.203,261.905 -39.594,263.826 -40.156,265.595 -40.259,266.208 -40.213,267.433 -39.579,267.057 -38.791,266.362 -37.805,265.151 -36.703,262.774 -34.177,258.058 -33.822,257.598 -33.502,257.480 -33.358,257.585 -33.057,258.590 -32.635,260.508 -32.683,263.091 -32.499,263.763 -32.469,264.438 -32.218,265.282 -31.936,265.903 -30.549,266.867 -30.274,266.933 -29.121,266.843 -26.776,266.419 -24.120,265.327 -23.402,264.761 -22.427,263.623 -22.013,262.634 -21.473,260.156 -21.577,259.002 -21.943,258.938 -22.384,259.110 -23.622,260.116 -24.165,261.226 -25.205,264.037 -25.335,265.072 -25.296,267.035 -24.701,268.246 -24.507,268.350 -23.094,268.289 -21.338,267.806 -20.222,266.881 -19.897,266.317 -19.435,263.712 -19.435,259.116 -19.721,259.904 -19.651,261.652 -19.329,263.138 -19.358,263.556 -19.221,264.382 -18.605,266.764 -18.237,267.440 -17.817,267.682 -17.261,267.613 -15.970,267.180 -14.162,265.563 -12.883,263.768 -12.447,262.779 -11.556,261.774 -11.224,261.232 -11.057,260.725 -11.605,261.850 -12.372,266.419 -12.420,269.083 -11.495,268.740 -9.849,267.482 -7.897,263.772 -7.309,261.553 -6.967,260.981 -7.034,261.095 -6.588,262.218 -5.586,265.961 -5.163,266.497 -4.516,267.032 -4.069,267.227 -2.765,267.532 -0.929,267.493 0.474,267.127 2.450,266.279 3.437,265.419 3.954,264.662 4.420,263.386 4.644,261.686 4.604,259.842 4.376,258.913 4.398,258.615 4.133,257.785 3.549,257.883 2.914,258.146 1.676,259.390 1.162,260.106 0.191,262.667 0.012,263.986 0.052,266.021 0.333,266.662 0.897,267.298 1.572,267.944 1.993,268.069 2.940,268.021 3.785,267.710 4.749,266.986 5.625,265.679 6.055,264.794 6.708,262.579 7.237,259.624 7.379,257.855 7.390,250.783 7.492,249.317 6.811,251.330 6.102,259.419 6.093,265.561 6.414,266.618 6.839,267.304 7.648,267.571 9.213,267.535 9.978,267.366 11.773,266.546 12.754,265.735 13.601,264.511 14.322,262.696 14.493,262.056 14.857,259.167 14.818,258.061 14.535,258.702 14.223,260.613 14.265,266.208 14.647,267.321 15.247,267.941 16.296,268.194 17.767,268.161 19.245,267.757 19.999,267.261 20.763,265.570 21.514,261.820 21.451,261.295 21.590,261.224 21.560,264.572 22.131,266.408 22.901,267.525 23.631,267.736 23.806,267.894 24.992,268.170 26.591,268.127 27.116,267.887 28.078,266.984 28.383,266.346 28.652,265.607 28.980,263.129 28.941,261.621 28.755,260.167 28.349,257.274 27.973,256.089 28.035,255.857 27.506,256.562 27.419,256.912 27.524,258.301 27.980,259.915 28.545,260.554 29.725,261.348 30.289,261.479 32.358,261.382 32.979,261.284 34.288,260.679 35.087,258.167 35.475,257.363 35.551,257.803 35.971,258.749 36.330,259.931 36.983,260.740 37.343,260.868 37.939,260.851 39.144,260.232 39.543,259.887 39.232,260.426 38.450,261.116 37.812,262.124 37.072,263.597 36.807,264.844 36.842,266.189 37.351,267.220 38.048,267.891 38.349,268.071 38.932,268.208 41.413,268.117 43.805,267.499 44.430,267.148 45.421,266.090 45.832,265.042 46.578,260.262 46.983,259.301 46.293,261.313 45.889,263.363 45.932,265.780 46.112,266.314 46.103,266.679 46.493,267.974 46.716,268.324 47.510,269.068 48.102,269.272 49.124,269.235 50.557,268.834 51.652,268.248 52.207,267.810 53.317,266.497 54.785,264.131 55.608,262.465 57.232,258.127 58.009,255.346 58.802,253.170 59.738,249.387 60.106,248.734 59.811,249.542 59.632,250.701 58.673,254.173 57.859,258.229 56.549,263.303 55.957,266.316 56.056,267.999 56.329,268.428 56.749,268.797 57.626,269.007 59.012,268.962 60.326,268.651 61.486,268.214 62.938,267.215 63.282,266.843 64.337,265.179 65.043,263.051 65.305,260.954 65.276,259.181 64.590,260.273 64.420,260.734 64.084,262.916 64.183,266.385 64.765,267.534 65.285,267.750 66.323,267.717 67.445,267.254 71.812,263.466 72.924,262.345 74.532,261.023 74.383,261.829 73.659,263.594 72.850,265.967 72.583,267.520 72.213,268.822 72.257,269.272 72.773,269.006 74.280,267.526 74.556,267.136 75.517,265.141 76.635,263.510 77.002,262.683 77.955,261.498 78.115,261.087 79.030,264.439 79.851,266.054 80.231,266.545 81.152,267.403 81.342,267.472 82.162,267.384 83.592,266.954 86.675,265.559 91.385,262.393 92.761,261.059 93.280,260.373 93.501,259.945 93.510,259.566 93.496,259.285 93.276,258.927 92.783,258.663 90.739,258.458 89.499,258.723 88.469,259.244 87.354,260.095 86.475,261.007 85.793,262.119 85.386,263.571 85.242,264.626 85.278,265.999 85.450,266.559 85.886,267.142 86.415,267.606 86.985,267.799 88.338,267.759 90.680,267.312 92.864,266.413 93.985,265.503 94.539,264.872 95.776,262.742 96.032,262.127 95.621,262.548 95.208,263.235 94.413,265.814 94.140,268.382 94.171,277.526 94.067,279.493 93.572,281.968 93.079,283.079 92.587,283.742 92.131,283.832 91.176,283.623 90.697,283.394 89.090,282.228 87.374,280.405 85.777,278.322 83.573,274.500 82.449,272.796 81.709,271.910 80.929,271.191 79.635,270.291 78.270,269.506 77.691,269.447 77.126,269.729 76.698,270.215 76.363,270.798 75.820,272.622 75.738,273.165 75.807,275.821 75.921,276.527 76.823,278.312 78.349,279.820 80.174,280.841 81.376,281.234 83.463,281.617 85.391,281.568 86.952,281.213 88.064,280.629 89.181,279.688 89.391,279.293 89.419,278.613 " />
			<polyline style="fill:none; stroke:rgb(0, 0, 0); stroke-width:1.147; opacity:1" stroke-linecap="round" points="71.662,252.724 71.517,253.077 71.519,253.541 71.564,254.131 71.808,254.863 " />
			<polyline style="fill:none; stroke:rgb(0, 0, 0); stroke-width:1.147; opacity:1" stroke-linecap="round" points="52.129,257.943 53.022,257.759 54.383,257.761 54.803,257.648 59.537,257.518 66.623,257.631 69.236,257.966 " />
			<polyline style="fill:none; stroke:rgb(0, 0, 0); stroke-width:1.147; opacity:1" stroke-linecap="round" points="50.610,248.869 50.582,248.882 " />
			<polyline style="fill:none; stroke:rgb(0, 0, 0); stroke-width:1.147; opacity:1" stroke-linecap="round" points="103.463,263.281 104.720,265.399 105.334,266.960 105.804,269.418 106.127,270.555 106.180,271.561 " />
			<polyline style="fill:none; stroke:rgb(0, 0, 0); stroke-width:1.147; opacity:1" stroke-linecap="round" points="115.720,267.379 116.319,267.801 117.129,268.088 118.597,267.622 119.894,266.896 121.303,265.458 121.978,263.903 122.329,262.772 122.793,259.125 122.751,257.288 122.855,257.704 123.325,258.400 125.250,263.280 125.604,264.398 125.971,266.445 125.941,267.016 125.685,267.652 124.821,268.382 124.380,268.490 123.472,268.416 122.339,268.029 121.928,267.727 121.141,266.916 121.125,266.784 121.963,266.839 122.707,267.052 124.518,267.210 127.322,267.066 129.401,266.686 131.695,265.659 132.502,265.044 133.359,263.907 133.530,263.533 134.103,260.883 134.055,260.069 133.634,259.223 133.080,258.988 132.891,259.007 131.970,260.105 131.062,262.521 130.965,263.376 131.034,264.446 131.352,265.941 132.035,267.204 132.401,267.655 133.605,268.381 134.019,268.479 134.434,268.423 135.276,268.082 135.719,266.806 135.079,262.922 135.027,259.722 136.385,260.808 138.308,261.304 140.654,261.257 140.995,261.377 141.890,261.352 142.593,261.446 143.036,261.605 " />
			<polyline style="fill:none; stroke:rgb(0, 0, 0); stroke-width:1.147; opacity:1" stroke-linecap="round" points="159.646,265.435 159.162,266.229 158.840,267.199 158.866,267.419 159.269,266.500 160.056,264.231 160.158,263.462 160.447,262.534 160.704,260.828 161.523,252.441 161.947,251.020 162.523,249.620 163.659,248.122 164.230,247.722 165.266,247.336 165.671,247.586 165.850,247.914 166.220,249.735 165.889,251.125 165.033,253.861 164.288,255.706 163.505,257.178 161.672,261.335 160.322,263.683 158.169,266.939 157.606,267.431 157.694,267.430 157.721,267.199 157.694,264.344 157.227,261.248 157.286,259.943 157.174,259.397 157.191,258.070 157.070,257.672 156.927,258.344 156.968,260.095 157.485,262.386 158.096,263.656 159.215,265.092 160.459,265.864 160.879,265.974 164.618,265.865 " />
			<polyline style="fill:none; stroke:rgb(0, 0, 0); stroke-width:1.147; opacity:1" stroke-linecap="round" points="174.054,264.984 175.260,263.338 176.907,260.743 177.178,260.076 177.903,258.834 179.343,255.562 179.854,253.938 180.337,251.651 180.627,249.610 181.007,248.261 180.951,247.872 180.963,248.633 180.674,249.641 180.492,251.014 179.508,253.848 178.705,256.886 177.169,261.089 175.539,264.991 174.703,267.676 174.180,268.575 174.238,268.917 174.760,268.402 175.658,267.161 176.249,266.527 177.960,264.238 179.003,262.568 179.623,261.949 180.146,261.012 180.341,260.159 180.592,259.857 180.530,259.977 180.974,261.042 181.421,262.791 181.487,263.837 181.844,265.146 182.897,266.809 184.153,267.672 184.434,267.739 185.585,267.651 188.333,267.004 190.929,265.265 191.182,264.985 191.385,264.467 191.651,263.085 191.038,261.503 190.250,261.380 189.556,262.045 189.302,262.622 189.001,264.140 189.156,267.161 189.552,268.730 189.740,269.091 190.519,269.774 190.977,269.935 191.410,269.870 192.355,269.499 192.681,269.107 193.050,267.676 192.762,266.308 191.807,263.322 191.440,262.534 191.258,261.784 191.437,262.326 191.972,262.989 192.145,263.355 192.735,263.978 193.156,264.361 194.675,265.291 197.214,266.092 199.791,265.852 201.398,265.475 202.367,264.419 202.741,262.862 202.639,259.467 202.199,260.327 201.974,261.753 202.011,265.119 202.480,268.171 202.492,269.239 202.694,270.675 202.706,275.023 202.429,275.591 202.481,276.010 202.475,275.594 202.649,275.199 202.641,274.805 203.030,272.724 203.302,270.306 203.258,258.943 203.495,258.240 203.477,257.991 203.906,257.141 204.974,256.633 205.534,256.696 206.268,256.969 207.223,257.636 208.054,258.717 208.890,260.224 209.122,260.966 209.535,263.491 209.514,263.907 209.060,265.463 208.658,266.180 208.324,266.550 206.704,267.308 205.988,267.446 204.114,267.341 202.726,266.786 202.362,266.328 202.028,266.196 201.970,266.077 202.090,265.738 203.098,265.431 203.496,265.470 204.172,265.768 205.777,266.102 208.249,266.060 211.371,265.434 214.205,264.492 216.092,263.280 216.960,262.012 217.331,260.476 217.279,259.140 216.690,257.421 215.831,257.009 215.460,257.050 214.611,257.375 213.785,258.184 213.006,260.219 212.867,261.187 212.924,262.834 213.093,263.635 213.709,265.072 214.337,265.790 215.399,266.673 216.131,266.938 215.762,266.901 " />
			<polyline style="fill:none; stroke:rgb(0, 0, 0); stroke-width:1.147; opacity:1" stroke-linecap="round" points="214.224,266.151 215.563,266.151 216.215,266.652 216.332,266.957 216.725,267.246 216.843,267.535 217.232,267.827 217.429,268.196 217.995,268.373 218.390,268.616 218.867,268.564 219.041,268.673 219.647,268.660 222.874,267.677 226.245,265.992 226.844,265.790 227.747,265.034 228.361,263.960 228.256,263.510 227.575,263.412 " />
			<polyline style="fill:none; stroke:rgb(0, 0, 0); stroke-width:1.147; opacity:1" stroke-linecap="round" points="-187.704,296.229 -187.774,296.193 -188.391,297.262 -188.269,297.572 -188.271,297.484 -186.967,297.552 -185.303,296.971 -184.332,296.334 -182.110,294.034 -181.565,293.299 -181.125,292.156 -180.179,290.369 -179.663,288.587 -179.168,283.808 -179.212,281.890 -179.323,281.540 -179.949,281.806 -180.242,282.267 -180.538,282.802 -181.603,285.523 -182.301,290.205 -182.272,290.726 -182.519,292.523 -182.422,295.686 -182.013,297.066 -181.053,298.032 -180.448,298.402 -179.887,298.533 -178.379,298.495 -177.919,298.215 -177.750,298.237 -176.990,297.862 -176.755,297.663 -175.488,296.398 -173.448,293.210 -172.916,292.066 -172.028,288.610 -171.602,285.884 -171.278,282.331 -170.804,280.175 -170.864,279.593 -170.851,281.455 -171.452,286.300 -173.246,294.214 -173.612,296.485 -173.568,297.380 -173.448,296.990 -173.009,296.577 -172.316,295.491 -171.364,293.267 -168.820,289.413 -168.653,289.290 -168.501,288.897 -168.339,289.065 -167.938,290.163 -167.153,294.098 -166.651,295.741 -165.426,296.786 -164.974,296.883 -164.141,296.814 -160.332,296.205 -158.397,295.436 -156.652,294.184 -155.643,293.056 -155.225,291.455 -155.482,290.915 -156.188,290.188 -156.717,289.991 -157.371,290.210 -158.318,290.795 -158.981,291.504 -159.759,292.981 -160.134,294.033 -160.271,294.917 -160.223,296.517 -159.766,297.586 -159.349,297.942 -159.015,298.044 -157.405,297.667 -155.730,296.918 -154.591,295.927 -154.031,295.091 -153.767,294.488 -153.461,292.666 -153.544,292.010 -154.124,290.403 -154.752,291.517 -154.669,293.036 -154.182,295.274 -153.570,296.277 -153.088,296.729 -151.640,297.538 -150.484,297.436 -148.782,297.051 -147.919,296.651 -146.814,295.911 -145.512,294.577 -144.639,293.133 -143.523,290.183 -143.365,287.484 -144.498,278.286 -144.917,279.986 -144.864,285.928 -145.164,290.804 -145.138,295.979 -144.711,297.752 -144.744,298.083 -144.544,298.452 -144.538,298.972 -144.465,298.996 -144.300,298.546 -144.323,298.380 " />
			<polyline style="fill:none; stroke:rgb(0, 0, 0); stroke-width:1.147; opacity:1" stroke-linecap="round" points="-152.275,285.970 -150.980,286.912 -149.586,287.529 -148.030,287.806 -146.103,287.760 -142.602,287.235 -139.759,286.612 -139.075,286.242 " />
			<polyline style="fill:none; stroke:rgb(0, 0, 0); stroke-width:1.147; opacity:1" stroke-linecap="round" points="-185.836,287.140 -186.434,287.256 -187.126,287.225 -186.738,287.404 -186.182,287.389 -185.472,287.535 -182.307,287.501 -176.193,286.789 -173.954,286.342 -173.104,286.018 " />
			<polyline style="fill:none; stroke:rgb(0, 0, 0); stroke-width:1.147; opacity:1" stroke-linecap="round" points="-122.783,292.940 -123.552,294.643 -123.940,296.086 -123.895,297.461 -123.304,298.845 -122.783,299.295 -122.389,299.392 -121.677,299.325 -120.660,299.064 -118.731,298.105 -117.035,296.783 -116.780,296.412 -116.173,295.433 -115.561,293.685 -115.087,291.599 -115.132,290.382 -115.753,291.033 -116.139,292.484 -116.096,295.227 -115.546,299.038 -115.548,303.383 -116.056,307.381 -116.368,308.426 -116.453,309.100 -117.028,310.946 -117.797,313.220 -118.576,314.927 -118.537,315.258 -118.529,315.006 -118.219,314.231 -118.183,312.009 -118.602,308.682 -119.111,305.867 -119.412,302.028 -119.372,299.062 -119.318,298.476 -119.046,297.581 -118.454,296.355 -118.117,296.291 -117.256,295.844 -115.629,295.891 -114.760,295.786 -114.035,295.480 -113.750,295.506 -112.779,295.170 -110.931,293.918 -109.951,293.471 -109.040,292.745 -108.170,292.296 -107.439,291.502 -106.923,290.435 -106.970,290.015 -107.238,289.610 -108.382,289.119 -109.310,289.456 -110.015,289.938 -110.692,290.706 -111.378,292.395 -111.672,293.907 -111.601,294.940 -111.244,296.457 -111.040,296.912 -110.642,297.589 -110.308,297.947 -109.175,298.617 -108.244,298.568 -107.148,298.252 -106.410,297.861 -105.363,296.729 -105.092,295.807 -105.921,293.764 -106.645,292.609 -108.140,290.917 -108.562,290.646 -107.080,291.802 -105.637,292.502 -103.484,293.286 -102.987,293.349 -101.568,293.267 -99.594,292.796 -99.078,292.528 -98.801,292.220 -98.375,291.142 -98.432,290.455 -98.718,289.842 -98.665,289.673 -99.380,290.001 -99.893,290.742 -100.352,293.017 -100.310,295.212 -99.974,296.185 -99.626,296.816 -99.098,296.992 -98.090,296.636 -97.265,295.886 -96.436,295.410 -94.992,294.265 -93.903,292.986 -93.647,292.576 -93.278,291.504 -92.835,289.672 -92.893,288.860 -93.611,289.468 -93.950,290.037 -94.117,290.409 -94.294,291.324 -94.252,292.144 -93.577,295.473 -93.168,296.458 -92.329,297.223 -91.866,297.388 -90.345,297.213 -89.332,296.917 -88.950,296.942 -87.851,296.653 " />
			<polyline style="fill:none; stroke:rgb(0, 0, 0); stroke-width:1.147; opacity:1" stroke-linecap="round" points="-61.040,293.521 -60.439,292.355 -60.977,291.325 -61.303,291.044 -61.601,290.947 -62.130,290.370 -63.019,289.791 -63.701,289.658 -66.148,288.850 -66.705,288.902 -67.990,289.532 -69.658,291.179 -69.973,292.075 -69.926,293.197 -69.514,294.633 -68.907,295.596 -67.764,296.649 -65.273,297.684 -64.572,297.780 -63.424,297.712 -62.045,297.445 -60.069,296.779 -58.182,295.609 -57.122,294.212 -56.567,293.677 -56.302,293.218 -56.016,292.305 -55.682,290.078 -55.699,289.402 -55.966,287.844 -57.007,283.927 -57.565,282.439 -57.943,281.021 -58.316,281.960 -58.489,282.719 -58.535,289.380 -58.414,290.464 -57.703,294.098 -57.153,295.380 -56.726,295.757 -56.267,295.926 -55.064,295.888 -52.682,295.255 -51.459,294.670 -50.276,293.819 -49.915,293.670 -49.398,292.985 -48.657,292.407 -48.488,292.123 -48.398,291.582 -48.594,290.466 -48.953,289.329 -49.658,288.116 -50.417,287.829 -50.624,287.837 -50.970,288.105 -51.794,289.118 -52.057,290.775 -52.015,292.520 -51.690,294.191 -51.088,295.681 -50.078,296.997 -49.800,297.188 -48.410,297.662 -47.942,297.741 -47.265,297.685 -46.242,297.393 -45.213,296.820 -45.017,296.647 -44.796,296.211 -44.567,295.394 -44.582,295.083 -45.159,293.663 -46.866,291.131 -48.326,289.405 -48.861,288.931 -49.285,288.732 -48.900,289.488 -48.698,289.644 -47.809,290.139 -46.299,290.461 -44.238,290.405 -41.677,290.051 -38.031,289.175 -37.006,289.036 -36.351,288.762 -36.145,288.796 -37.039,290.036 -38.129,292.208 -38.686,293.797 -39.788,296.249 -39.949,296.987 -39.926,297.633 -39.079,296.759 -37.900,295.084 -32.752,289.197 -32.127,288.110 -32.129,292.030 -31.840,292.928 -31.438,294.865 -30.825,295.643 -29.493,296.517 -29.105,296.696 -28.331,296.827 -25.393,296.418 -23.978,296.070 -22.778,295.268 -22.256,294.558 -21.931,293.806 -21.473,292.197 -21.054,288.215 -21.096,278.689 -21.096,279.705 -21.370,281.334 -21.419,291.031 -20.993,293.944 -20.582,294.983 -20.427,295.775 -19.781,297.363 -19.381,298.034 -18.662,298.761 -18.096,298.973 -17.177,298.940 -16.397,298.616 -15.747,297.945 " />
			<polyline style="fill:none; stroke:rgb(0, 0, 0); stroke-width:1.147; opacity:1" stroke-linecap="round" points="-28.974,287.494 -26.369,287.959 -24.480,288.634 -22.600,288.932 -21.469,289.002 -20.914,288.986 -18.754,288.569 -17.824,288.175 -17.197,288.073 -16.138,287.557 -16.069,287.322 -16.134,287.135 " />
			<polyline style="fill:none; stroke:rgb(0, 0, 0); stroke-width:1.147; opacity:1" stroke-linecap="round" points="-32.158,276.184 -31.235,277.749 -30.565,279.728 -30.054,280.683 -30.097,281.790 " />
			<polyline style="fill:none; stroke:rgb(0, 0, 0); stroke-width:1.147; opacity:1" stroke-linecap="round" points="-4.991,297.944 -3.450,299.114 -3.075,299.202 -2.484,299.147 -1.142,298.712 -0.053,297.948 0.187,297.576 0.922,296.870 2.440,294.297 3.269,291.684 3.641,287.996 3.605,286.747 2.787,280.502 2.823,279.683 2.815,282.469 3.046,284.482 3.002,290.186 2.402,294.118 1.682,296.910 1.717,297.310 1.721,297.175 2.182,296.703 2.735,295.915 3.417,294.701 3.966,293.366 5.136,291.719 6.542,289.058 6.718,289.302 6.932,289.960 7.801,293.955 8.171,295.227 8.421,295.641 9.480,296.516 9.933,296.613 11.070,296.547 12.820,296.156 14.396,295.476 16.009,294.229 16.764,293.290 17.220,291.862 17.160,291.495 16.909,291.049 15.994,290.695 15.138,290.979 14.232,291.640 13.815,292.075 13.157,293.254 13.063,293.847 13.136,294.893 13.577,296.421 13.892,296.782 14.541,297.356 15.290,297.822 15.521,297.890 16.572,297.806 17.676,297.410 19.203,296.326 19.523,295.922 19.839,294.482 19.821,294.132 19.293,292.463 19.116,292.191 19.142,292.065 18.825,292.854 19.002,294.417 19.486,296.152 20.630,297.276 21.091,297.551 21.529,297.646 22.070,297.578 24.150,296.647 25.360,295.679 26.258,294.711 26.859,293.439 27.032,292.358 27.328,291.330 27.268,290.654 27.149,290.370 27.145,290.493 26.691,290.879 26.530,291.252 26.596,292.240 27.372,295.429 27.604,295.993 28.993,297.233 29.519,297.406 30.519,297.360 32.033,296.834 33.003,296.150 33.319,295.753 33.543,294.878 33.743,293.891 33.706,293.245 33.214,291.277 32.822,290.325 32.398,288.656 33.355,289.492 35.974,290.733 36.880,290.958 40.202,290.912 42.138,290.328 43.048,289.868 43.398,289.194 43.277,288.607 42.723,287.546 42.109,286.981 41.457,286.708 41.125,286.751 40.715,286.982 40.113,287.610 39.831,288.052 39.198,289.633 38.832,291.915 38.883,293.560 39.163,294.852 39.762,296.030 40.212,296.431 41.060,296.943 42.546,297.361 43.742,297.493 45.496,297.444 48.181,297.137 51.409,296.382 52.786,296.219 53.692,295.890 53.784,295.930 " />
			<polyline style="fill:none; stroke:rgb(0, 0, 0); stroke-width:1.147; opacity:1" stroke-linecap="round" points="70.276,293.429 69.696,292.699 69.198,292.266 67.535,291.509 66.895,291.921 66.522,292.311 66.064,293.086 65.968,293.712 66.036,294.783 66.310,295.840 66.813,296.848 68.092,298.164 69.576,298.843 69.943,298.913 71.177,298.840 72.055,298.480 72.211,298.287 72.706,297.530 73.068,296.298 72.679,294.817 71.975,293.415 71.319,293.081 71.320,293.278 71.049,293.835 71.105,294.462 71.430,295.262 72.026,296.069 73.723,297.193 74.511,297.550 75.074,297.644 76.451,297.576 77.959,297.270 78.818,296.970 81.093,295.448 81.639,294.639 81.975,293.381 81.936,292.410 81.478,293.239 81.294,294.047 81.340,298.027 81.523,298.305 81.499,298.530 82.101,298.142 82.432,297.626 82.955,295.278 83.379,294.288 83.634,293.207 83.950,292.671 84.604,293.121 84.984,293.514 85.084,293.788 85.590,294.231 85.761,294.676 85.969,294.855 86.229,295.395 86.535,295.759 87.572,296.480 88.597,296.786 90.210,296.738 91.074,296.465 91.257,296.490 92.363,295.980 92.974,293.754 92.916,292.361 92.819,291.679 92.636,291.363 92.091,291.596 91.880,291.811 91.703,292.466 91.726,294.728 92.063,295.795 92.555,296.906 93.351,297.643 94.094,297.858 94.756,297.804 97.037,297.228 98.868,296.200 99.626,295.208 99.800,294.836 100.266,292.237 100.221,289.394 100.058,289.861 100.091,290.721 100.634,293.354 101.522,296.048 102.404,297.904 103.771,300.118 104.683,301.981 105.388,303.049 106.073,304.762 106.458,305.385 105.338,304.915 103.863,303.593 100.590,299.802 99.779,298.660 99.039,297.848 98.157,297.265 97.320,297.034 97.036,297.049 96.545,297.301 95.764,297.932 94.871,299.626 94.736,300.380 94.785,302.043 95.059,302.919 95.479,303.651 96.609,304.578 98.950,305.257 100.273,305.395 101.236,305.352 106.517,304.638 108.205,304.190 108.642,303.967 " />
			<polyline style="fill:none; stroke:rgb(0, 0, 0); stroke-width:1.147; opacity:1" stroke-linecap="round" points="124.895,290.913 124.889,290.912 " />
			<polyline style="fill:none; stroke:rgb(0, 0, 0); stroke-width:1.147; opacity:1" stroke-linecap="round" points="121.940,297.870 122.253,296.517 122.561,296.317 123.129,295.554 124.275,293.797 125.141,291.776 125.519,290.635 126.255,285.121 126.358,282.880 126.820,281.339 126.788,281.052 127.039,280.098 128.219,277.749 127.129,280.477 125.105,288.161 123.998,291.568 123.733,293.183 123.824,296.150 124.096,296.765 124.071,296.937 124.414,297.545 125.088,297.899 125.799,297.854 127.222,297.371 128.712,296.602 129.989,295.614 131.103,294.317 131.353,293.856 131.485,293.301 132.051,292.206 132.311,291.360 132.613,288.804 132.496,285.784 132.315,286.427 132.350,288.511 133.039,290.255 133.556,291.174 134.115,291.450 134.659,291.392 136.362,290.826 137.874,289.919 138.564,289.382 138.640,289.150 138.204,290.323 137.763,290.997 137.259,293.375 137.300,294.632 137.716,295.901 137.897,296.215 138.861,296.916 139.290,297.017 139.877,296.961 141.726,296.596 142.745,296.288 145.004,294.763 145.925,293.787 146.663,292.695 146.742,292.399 146.827,290.375 146.567,289.854 146.316,289.830 146.097,289.849 145.553,290.282 144.728,291.979 144.506,293.400 144.550,295.312 144.777,296.205 145.738,297.944 146.949,298.658 147.735,298.800 148.825,298.746 149.386,298.533 150.205,297.940 150.616,297.460 150.755,296.883 150.728,296.471 150.223,294.591 149.745,293.360 148.630,291.103 148.340,290.151 147.915,289.516 147.740,289.485 147.562,289.847 147.583,290.276 148.209,291.189 148.507,291.453 149.121,291.853 151.328,292.746 152.984,293.054 154.402,293.012 155.652,292.567 156.067,292.069 156.343,291.276 156.310,289.852 155.807,290.387 155.296,292.062 155.293,295.571 155.475,296.097 156.183,297.138 157.003,297.849 157.487,297.986 158.529,297.943 159.505,297.677 160.957,296.745 161.852,295.662 162.006,295.299 162.622,293.314 163.092,290.374 163.047,288.890 162.666,289.928 162.735,292.381 163.012,293.800 163.432,294.855 164.453,296.406 164.746,296.781 166.513,298.289 168.062,298.672 169.273,298.620 170.247,298.259 170.941,297.765 171.258,297.300 171.910,295.677 172.282,294.059 172.593,290.039 172.551,279.859 172.093,281.971 171.316,288.300 171.357,289.506 171.149,292.934 171.242,295.773 171.773,298.117 171.983,298.471 172.987,299.296 173.616,299.469 175.129,299.426 176.354,299.114 177.828,298.440 178.733,297.441 179.194,296.453 179.560,295.979 179.703,295.255 179.350,293.476 178.811,292.188 177.865,290.667 177.072,290.082 176.810,290.116 176.528,290.825 176.589,291.541 176.866,292.098 177.643,293.202 178.470,294.008 179.272,294.569 180.630,295.120 181.791,295.291 184.143,295.265 184.683,295.147 186.569,293.924 186.969,293.394 187.507,292.127 187.829,289.582 187.789,278.129 186.979,279.220 186.760,280.163 186.297,281.472 185.691,285.243 185.402,288.300 185.249,288.707 185.290,289.808 186.033,294.824 186.222,295.694 186.927,296.733 187.871,297.505 188.189,297.605 189.135,297.534 190.869,297.099 192.932,296.423 193.935,295.985 196.185,294.669 197.480,293.738 198.395,293.234 199.671,292.223 199.910,291.904 200.189,290.596 199.981,289.869 199.355,288.522 198.342,287.032 197.614,286.498 196.885,286.311 196.192,286.638 195.473,287.536 194.926,288.746 194.311,290.928 194.210,292.035 194.277,293.290 194.507,294.607 194.818,295.336 195.756,296.955 197.260,298.324 199.031,299.009 200.446,298.919 202.105,298.575 204.185,297.766 204.510,297.598 205.102,297.011 205.350,296.512 205.290,296.378 " />
			<polyline style="fill:none; stroke:rgb(0, 0, 0); stroke-width:1.147; opacity:1" stroke-linecap="round" points="118.522,284.586 118.878,284.690 120.790,284.678 123.203,284.263 126.105,283.590 129.281,282.608 130.094,282.459 131.812,282.345 132.380,282.579 " />
			<polyline style="fill:none; stroke:rgb(0, 0, 0); stroke-width:1.147; opacity:1" stroke-linecap="round" points="-184.886,328.582 -184.558,328.698 -183.520,328.683 -182.465,328.316 -181.438,327.603 -181.130,327.164 -180.694,326.922 -179.304,325.543 -178.385,323.705 -178.063,322.273 -177.825,321.786 -177.882,320.895 -178.029,320.511 -178.468,320.975 -179.111,322.079 -179.761,324.777 -179.715,326.602 -179.442,327.347 -178.792,328.593 -178.469,328.863 -177.727,329.174 -176.477,329.126 -175.380,328.720 -173.146,326.803 -172.770,326.071 -172.364,325.546 -171.921,324.603 -171.290,321.095 -171.320,320.436 -171.826,321.314 -172.167,323.034 -172.085,325.608 -171.360,327.332 -170.655,327.964 -170.422,328.028 -169.416,327.947 -168.550,327.688 -167.975,327.381 -166.437,326.384 -165.374,325.267 -164.495,323.664 -163.879,321.223 -163.886,320.721 -164.340,322.304 -164.649,324.305 -164.827,326.421 -164.804,329.732 -164.515,328.927 -163.914,327.862 -163.038,324.965 -162.165,322.809 -161.262,320.060 -161.137,319.911 -160.732,320.795 -159.681,325.433 -159.028,326.593 -158.351,327.448 -157.881,327.869 -157.263,328.177 -155.796,328.084 -152.311,327.327 -151.549,326.937 -150.388,326.049 -149.649,325.093 -149.252,323.102 -149.306,321.737 -149.596,320.531 -149.556,320.387 -150.146,321.010 -150.508,321.572 -151.417,323.798 -151.630,325.195 -151.592,327.054 -150.994,329.296 -149.958,329.907 -148.918,329.719 -146.297,327.922 -145.196,325.763 -144.942,324.841 -144.647,321.242 -145.068,317.871 -145.601,315.080 -145.645,310.989 -145.217,312.891 -145.274,318.405 -145.495,320.667 -145.548,325.647 -145.127,327.027 -144.819,327.586 -144.390,327.968 -144.078,328.030 -143.322,327.942 -142.494,327.729 -140.950,327.033 -139.837,326.343 -138.340,324.688 -137.962,323.800 -137.621,322.080 -137.654,321.474 -138.168,319.504 -138.574,318.436 -138.569,318.514 -139.255,318.852 -139.435,319.039 -139.687,319.669 -140.086,322.029 -140.054,324.237 -139.547,326.474 -139.297,326.968 -138.750,327.582 -137.568,328.364 -137.284,328.432 -136.169,328.171 -135.331,328.112 -133.915,327.503 -131.639,325.771 -131.267,324.867 -130.885,322.083 -130.913,321.494 -131.266,320.235 -131.708,319.597 -131.818,319.192 -131.806,319.269 -132.299,319.287 -132.450,319.857 -132.379,320.374 -131.724,320.653 -131.124,320.607 -130.593,320.369 -130.444,320.393 -129.075,319.688 -128.742,319.826 -128.288,321.159 -127.043,326.257 -126.490,327.333 -125.103,329.051 -124.496,329.391 -124.074,329.491 -123.687,329.453 -122.258,329.070 -121.253,328.533 -120.308,328.183 -119.073,327.196 -118.624,326.622 -117.978,325.099 -117.739,322.842 -118.063,320.650 -118.633,318.190 -119.373,316.459 -119.514,315.855 -119.285,317.359 -118.405,319.694 -117.663,321.053 -116.238,323.042 -115.133,324.318 -113.205,326.110 -112.639,326.437 -112.269,326.842 -112.098,327.081 -111.822,327.971 -111.858,328.385 -112.325,329.531 -113.685,330.153 -114.874,330.424 -116.288,330.373 -116.860,330.205 -117.252,329.937 -118.361,328.570 -118.703,327.233 -118.679,326.323 -118.561,326.136 -117.926,325.546 -117.399,325.337 -117.034,325.373 -116.133,325.694 -113.817,327.558 -112.278,328.117 -110.977,328.409 -109.506,328.360 -108.212,328.001 -106.682,327.243 -106.137,326.784 -105.580,325.974 -104.705,323.829 -104.521,322.119 -104.729,318.840 -105.125,315.135 -105.118,311.195 -105.115,311.982 -105.390,313.540 -105.381,314.549 -105.817,317.153 -106.683,324.317 -106.638,327.397 -106.213,328.925 -105.607,329.490 -102.135,328.456 -100.172,327.597 -99.244,327.071 -98.031,326.129 -97.201,325.012 -96.939,324.456 -96.818,323.573 -96.482,322.374 -96.586,321.054 -96.868,321.073 -97.351,321.300 -97.948,321.965 -99.188,323.982 -100.171,326.481 -100.305,327.378 -100.248,328.494 -99.979,329.392 -99.886,329.645 -98.896,330.321 -97.862,330.277 -97.071,330.065 -96.158,329.658 -94.608,328.545 -94.089,327.886 -93.816,327.300 -93.592,325.686 -93.621,324.871 -94.086,322.958 -94.122,322.303 -94.353,322.937 -94.306,323.693 -93.343,327.246 -92.741,328.023 -92.281,328.448 -91.909,328.586 -91.123,328.532 -90.313,328.271 -88.525,327.396 -86.823,326.245 -85.615,325.141 -83.326,323.631 -82.028,322.282 -81.773,322.178 -82.482,323.376 -83.404,324.593 -83.820,325.670 -84.664,327.236 -84.832,327.967 -84.804,329.078 -83.528,328.004 -82.394,326.827 -81.300,324.889 -80.087,323.348 -78.406,320.431 -78.385,324.235 -77.876,325.986 -77.173,326.961 -76.027,327.685 -75.243,328.054 -73.436,328.044 -71.049,327.473 -69.162,326.615 -67.908,325.760 -66.465,324.577 -65.941,323.715 -65.862,321.599 -66.336,320.225 -66.805,319.810 -67.558,319.548 -67.866,319.568 -68.825,320.070 -70.033,321.423 -70.787,322.566 -71.252,324.953 -71.215,326.302 -70.645,327.305 -69.653,328.309 -68.535,328.838 -67.090,328.806 -65.972,328.082 -65.140,327.239 -64.266,324.287 -63.943,322.453 -64.052,322.145 -64.037,320.838 -63.612,315.980 -63.242,313.491 -63.297,312.296 -63.049,311.185 -63.013,311.370 -63.358,312.596 -63.609,314.831 -63.706,324.723 -63.642,325.124 -63.235,326.101 -62.542,326.702 -62.270,326.804 -61.769,326.916 -60.464,326.880 -59.081,326.609 -57.746,326.114 -57.350,325.852 -56.429,324.578 -56.172,323.765 -55.778,320.927 -55.813,319.883 -56.249,320.877 -56.498,322.291 -56.448,324.106 -55.991,325.896 -55.385,326.691 -54.755,327.280 -53.860,327.832 -53.449,327.926 -52.361,327.855 -50.819,327.508 -49.122,326.745 -47.969,325.699 -46.916,324.991 -46.035,324.070 -44.797,322.496 -43.940,320.821 -45.287,324.567 -45.837,326.800 -46.649,327.858 -47.204,328.900 -47.415,329.671 -47.455,327.836 -47.160,326.473 -45.327,322.560 -44.034,320.726 -43.974,320.475 -43.678,320.810 -42.812,323.614 -42.587,324.700 -41.642,326.554 -41.334,326.867 -40.814,327.736 -40.061,328.126 -38.904,328.356 -37.633,328.312 -36.463,328.045 -33.930,326.969 -30.409,324.640 -28.520,323.088 -26.518,321.007 -26.408,320.688 -26.516,320.424 -27.127,320.009 -28.461,319.766 -29.606,319.812 -30.972,320.088 -32.512,320.720 -34.327,322.237 -34.834,322.934 -35.197,324.343 -35.102,325.552 -34.223,326.494 -33.637,326.891 -32.789,327.282 -31.483,327.682 -30.651,327.779 -29.549,327.725 -28.243,327.415 -26.863,326.746 -26.498,326.488 -25.677,325.509 -25.171,324.009 -24.943,322.274 -24.716,321.406 -24.749,321.027 -25.400,322.097 -25.650,323.629 -25.619,330.005 -25.334,332.723 -25.302,337.115 -25.170,338.182 -25.205,340.884 -26.012,342.293 -26.341,342.400 -27.276,342.009 -29.138,340.542 -30.163,339.447 -33.469,335.041 -35.767,331.407 -36.178,330.899 -36.664,330.534 -37.342,330.143 -37.896,329.996 -38.315,330.038 -39.280,330.402 -40.115,331.160 -40.796,332.683 -40.901,333.368 -40.835,334.864 -40.723,335.417 -40.281,336.492 -39.975,337.022 -38.622,338.485 -37.970,338.985 -37.247,339.349 -35.761,339.788 -34.750,339.888 -33.213,339.722 -32.083,339.352 -30.771,338.706 -30.407,338.323 -30.296,337.622 " />
			<polyline style="fill:none; stroke:rgb(0, 0, 0); stroke-width:1.147; opacity:1" stroke-linecap="round" points="-56.113,314.821 -55.923,315.143 " />
			<polyline style="fill:none; stroke:rgb(0, 0, 0); stroke-width:1.147; opacity:1" stroke-linecap="round" points="-111.187,316.347 -110.015,316.811 -109.542,316.885 -108.201,317.054 -106.099,317.006 -103.099,316.652 -97.969,315.455 -96.707,315.284 -96.098,315.050 -95.952,315.137 " />
			<polyline style="fill:none; stroke:rgb(0, 0, 0); stroke-width:1.147; opacity:1" stroke-linecap="round" points="-9.555,324.198 -9.637,324.198 -8.681,323.030 -5.818,321.012 -4.059,320.171 -2.964,319.952 -2.308,319.668 -1.979,319.705 -1.722,319.896 -1.541,320.350 -1.162,320.885 -1.093,321.833 -1.115,322.649 -1.573,324.769 -3.182,328.679 -3.553,329.295 -3.822,329.470 -3.948,329.879 -3.621,329.045 -2.521,327.102 0.357,322.739 1.604,319.642 1.685,319.586 2.219,321.474 2.278,326.481 3.265,325.909 4.402,324.920 5.842,322.961 6.540,322.179 7.246,321.110 7.747,320.053 8.349,319.239 8.488,318.701 8.668,318.424 8.799,319.155 8.769,320.794 8.651,321.327 8.678,324.194 8.800,324.739 9.147,325.400 9.753,325.945 10.055,326.069 11.553,325.975 13.703,325.571 14.691,325.268 16.609,324.409 18.253,323.440 19.207,322.631 19.507,321.859 19.692,320.900 19.673,320.514 18.814,318.287 18.379,317.655 17.538,316.751 16.352,316.324 16.207,316.330 15.879,316.591 14.785,318.068 13.810,320.648 13.633,321.925 13.736,323.997 13.947,324.970 14.269,325.622 15.159,326.694 15.542,327.050 16.238,327.423 17.704,327.810 20.309,327.767 23.284,327.317 24.622,326.985 25.519,326.624 26.541,326.359 26.687,326.209 " />
			<polyline style="fill:none; stroke:rgb(0, 0, 0); stroke-width:1.147; opacity:1" stroke-linecap="round" points="31.127,325.997 31.758,327.193 32.060,327.315 32.198,327.231 " />
		</g>
		</g>
	</g>
</svg>
