<?xml version="1.0" encoding="UTF-8"?>
<svg xmlns="http://www.w3.org/2000/svg" height="596.70796460177" width="452.32525148644913" viewBox="-223.64601769911505 0.0 452.32525148644913 596.70796460177">
	<g id="p1" style="display:inline">
		<g id="response" transform="translate(0.0, 300.0)">
			<polyline style="fill:none; stroke:rgb(0, 0, 255); stroke-width:1.720; opacity:1" stroke-linecap="round" points="-164.055,81.221 -164.146,81.181 -163.328,77.853 -163.351,77.249 -162.949,74.813 -162.729,72.922 -162.710,71.584 -162.294,68.629" />
			<polyline style="fill:none; stroke:rgb(0, 0, 255); stroke-width:1.720; opacity:1" stroke-linecap="round" points="-150.629,74.859 -149.527,73.028 -149.091,72.484 -148.931,72.091 -148.633,72.979 -148.705,73.745 -148.465,74.863" />
			<polyline style="fill:none; stroke:rgb(0, 0, 255); stroke-width:1.720; opacity:1" stroke-linecap="round" points="-130.179,73.002 -129.358,73.779 -128.977,73.924 -128.190,73.874 -127.469,73.496 -126.675,72.395 -126.398,71.646" />
			<polyline style="fill:none; stroke:rgb(0, 0, 255); stroke-width:1.720; opacity:1" stroke-linecap="round" points="-115.729,71.835 -115.821,72.234 -115.757,72.754 -115.182,73.747 -114.115,74.326 -112.249,74.289 -110.499,73.962" />
			<polyline style="fill:none; stroke:rgb(0, 0, 255); stroke-width:1.720; opacity:1" stroke-linecap="round" points="-97.361,79.740 -96.905,78.979 -96.531,78.177 -96.067,74.753 -96.127,72.580 -96.711,68.311 -97.218,66.053" />
			<polyline style="fill:none; stroke:rgb(0, 0, 255); stroke-width:1.720; opacity:1" stroke-linecap="round" points="-87.306,74.461 -87.469,73.160 -87.943,71.827 -88.494,73.224 -88.495,75.658 -87.984,78.046 -87.337,79.557" />
			<polyline style="fill:none; stroke:rgb(0, 0, 255); stroke-width:1.720; opacity:1" stroke-linecap="round" points="-80.659,77.534 -80.237,75.124 -80.278,73.177 -80.446,73.609 -80.417,76.000 -79.774,78.361 -78.940,80.200" />
			<polyline style="fill:none; stroke:rgb(0, 0, 255); stroke-width:1.720; opacity:1" stroke-linecap="round" points="-72.198,74.200 -72.890,76.216 -72.846,78.732 -72.301,80.129 -72.008,80.611 -71.493,81.059 -70.348,81.778" />
			<polyline style="fill:none; stroke:rgb(0, 0, 255); stroke-width:1.720; opacity:1" stroke-linecap="round" points="-67.002,72.752 -66.671,73.122 -66.202,73.356 -65.842,73.919 -66.264,73.724 -66.676,73.122 -66.806,73.154" />
			<polyline style="fill:none; stroke:rgb(0, 0, 255); stroke-width:1.720; opacity:1" stroke-linecap="round" points="-59.043,80.248 -58.276,79.265 -58.028,78.724 -57.762,77.898 -57.489,75.941 -57.530,73.573 -57.759,72.171" />
			<polyline style="fill:none; stroke:rgb(0, 0, 255); stroke-width:1.720; opacity:1" stroke-linecap="round" points="-48.941,78.591 -48.438,77.880 -47.970,77.427 -47.554,76.037 -47.593,74.571 -47.797,74.232 -47.938,74.520" />
			<polyline style="fill:none; stroke:rgb(0, 0, 255); stroke-width:1.720; opacity:1" stroke-linecap="round" points="-46.248,81.546 -45.094,82.871 -43.376,83.858 -41.711,84.143 -40.111,84.104 -38.674,83.742 -37.843,83.343" />
			<polyline style="fill:none; stroke:rgb(0, 0, 255); stroke-width:1.720; opacity:1" stroke-linecap="round" points="-31.595,76.884 -31.374,76.550 -31.397,76.430 -32.017,76.164 -32.781,76.292 -33.933,76.753 -34.724,77.399" />
			<polyline style="fill:none; stroke:rgb(0, 0, 255); stroke-width:1.720; opacity:1" stroke-linecap="round" points="-24.516,86.294 -24.513,85.811 -24.892,84.677 -25.640,83.472 -27.481,81.105 -28.723,79.278 -29.186,78.302" />
			<polyline style="fill:none; stroke:rgb(0, 0, 255); stroke-width:1.720; opacity:1" stroke-linecap="round" points="-19.592,76.708 -19.272,76.934 -18.352,79.066 -18.142,79.991 -17.844,80.700 -17.264,83.485 -17.305,84.084" />
			<polyline style="fill:none; stroke:rgb(0, 0, 255); stroke-width:1.720; opacity:1" stroke-linecap="round" points="-10.463,77.576 -10.231,78.143 -8.958,82.965 -8.531,83.480 -7.898,84.577 -7.005,85.299 -6.054,85.894" />
			<polyline style="fill:none; stroke:rgb(0, 0, 255); stroke-width:1.720; opacity:1" stroke-linecap="round" points="-1.550,84.655 -1.421,84.396 -0.704,83.706 0.081,81.562 0.693,76.835 0.641,75.347 0.303,73.077" />
			<polyline style="fill:none; stroke:rgb(0, 0, 255); stroke-width:1.720; opacity:1" stroke-linecap="round" points="7.892,81.934 9.271,83.247 10.645,84.958 11.225,85.980 11.510,86.768 11.603,87.396 11.395,87.668" />
			<polyline style="fill:none; stroke:rgb(0, 0, 255); stroke-width:1.720; opacity:1" stroke-linecap="round" points="2.043,85.750 0.977,85.049 -0.373,83.774 -1.026,83.318 -1.505,82.120 -1.468,81.849 -0.949,81.770" />
			
			<text x="-150" y="130" font-family="sans-serif" font-size="16" fill="blue">Hi Ryan!</text>
			<text x="-150" y="160" font-family="sans-serif" font-size="16" fill="blue">I can read your handwriting perfectly fine.</text>
			<text x="-150" y="180" font-family="sans-serif" font-size="16" fill="blue">It is indeed very neat and clear.</text>
			<text x="-150" y="210" font-family="sans-serif" font-size="16" fill="blue">I'm excited to work with you on the handwriting</text>
			<text x="-150" y="230" font-family="sans-serif" font-size="16" fill="blue">recognition project!</text>
			<text x="-120" y="270" font-family="sans-serif" font-size="16" fill="blue">- Claude</text>
		</g>
	</g>
</svg>